<svg xmlns="http://www.w3.org/2000/svg" viewBox="0 0 1034.06 238.18"><defs><style>.cls-1{font-size:125.33px;font-family:PlayfairDisplay-Regular, Playfair Display;letter-spacing:0.08em;}.cls-2{letter-spacing:0.1em;}.cls-3{letter-spacing:0.09em;}.cls-4{letter-spacing:0.1em;}.cls-5{letter-spacing:0.09em;}</style></defs><g id="Layer_2" data-name="Layer 2"><g id="Layer_1-2" data-name="Layer 1"><text class="cls-1" transform="translate(305.15 157.96)">N<tspan class="cls-2" x="98.38" y="0">ap</tspan><tspan class="cls-3" x="258.68" y="0">o</tspan><tspan class="cls-4" x="338.64" y="0">litan</tspan><tspan class="cls-5" x="655.47" y="0">a</tspan></text><path d="M86.46,184.81c.14-1.85.27-3.69.43-5.53a17,17,0,0,0-.32-5.09c-.13-.58-.38-1.17-1-1.3s-.86.55-1.12,1a18.67,18.67,0,0,1-1.28,2.21c-1.52,2-3.43,2.34-5.29.6-1.22-1.14-2-.92-3.29-.22-7.24,4.06-15.2,6.34-22.91,9.23a86.88,86.88,0,0,0-10.89,4.86,4.85,4.85,0,0,0-2.36,2.6c-.66,1.64-1.43,3.25-2.25,4.83a15.72,15.72,0,0,1-7.53,7.24,17.85,17.85,0,0,0-10,21.1,18.13,18.13,0,0,1,.55,3.58c.21,4.52-2,7.26-6.47,8.08a6.21,6.21,0,0,1-6.94-3c-1.93-2.95-2.38-6.35-2.89-9.72-.12-.76-.07-1.56-.74-2.15a5.43,5.43,0,0,1-1.27-6.67c1.9-4.12,1.46-8.08.26-12.17-2.4-8.14-1-15.89,2.49-23.41q5-10.72,9.94-21.47c2.94-6.31,7.47-11.41,12.56-16A18.16,18.16,0,0,0,31,135.82q1.58-4.41,3.27-8.79a15.12,15.12,0,0,1,5.91-7.37c3.77-2.47,6.43-6,9.24-9.39C56.29,102.13,62.37,93.4,71.2,87c5.39-3.89,10-8.81,15-13.25a3.16,3.16,0,0,0,1-2A16.54,16.54,0,0,1,98.15,58.4,6.33,6.33,0,0,0,101.23,56c2-2.92,4.82-5,7.58-7.13a44,44,0,0,0,10.7-12.31c2.08-3.39,2.18-7,2.08-10.64-.17-6.58,1.45-12.65,6-17.4C130,6.05,132.89,4,135.48,1.66c2.05-1.84,4.5-1.95,7-1.3a14.34,14.34,0,0,1,4.32,1.78C157.47,9,169,14.4,179.6,21.28c5.31,3.44,10.8,6.6,16.17,9.94,2.95,1.84,6,3.63,7.65,6.91a4.79,4.79,0,0,0,1.58,1.4c7.48,5.42,15.59,9.94,22.83,15.72a4.4,4.4,0,0,0,1.55.67c13.18,3.28,21.16,12.16,25.3,24.54,5.29,15.84-1.33,31.91-16.19,40.74-7.53,4.47-15.79,7.09-24.1,9.59-4.62,1.39-9.24,2.8-13.87,4.18-1,.31-1.69.58-1.45,2,.56,3.3-.64,5.49-3.06,6.25-2.19.68-5.58-.86-6.65-3.46-.74-1.79-1.52-1.67-3-1.14-5.1,1.84-10.55,2.29-15.75,3.72-9,2.47-17.87,5.68-27,7.72-13.46,3-26.65,7-39.79,11.16A40.1,40.1,0,0,0,99,163.19c-2.1,1-4.26,1.78-4.7,4.66-.51,3.33-.72,6.49,1.34,9.41,1.93,2.73,4.45,5,6,8a7,7,0,0,1-3,9.84,8.12,8.12,0,0,1-12.14-6.48c-.1-1.27,0-2.55,0-3.83Zm21.08-37.57a27.15,27.15,0,0,1,8.52-.39c3.92.35,6.82-1.87,10.24-3.38-1.39-1.09-3-.85-4.32-1.9a5,5,0,0,1,2.92.2c3.29.87,6.57,1.8,9.86,2.7,5.35,1.47,10.23,1,14.39-3.17a58.73,58.73,0,0,1,5.46-4.44c6.85-5.48,14.41-8.46,23.36-6.79a4.41,4.41,0,0,0,5.1-2.62c.66-1.33,1.25-2.75,2.63-3.52.47-.26,1-.82,1.54-.34s-.15,1-.45,1.42c-.76,1-.72,1.45.66,1.83,3.56,1,4.69,3.18,3.77,6.82a23.92,23.92,0,0,0-.68,2.68A4.73,4.73,0,0,0,193,141.2a3.28,3.28,0,0,0,3.65,0c1.16-.71,1.17-1.89,1-3a11.62,11.62,0,0,0-1.62-4.6c-3.82-5.76,1-15.37,6.8-18,.56-.25,1.24-.71,1.77-.17s-.69.86-.21,1.6c3.65-.6,7.37-1.48,9.83-4.41,2-2.36,3.27-5.29,6.88-6.36a12.53,12.53,0,0,1-4.39-4.62,20,20,0,0,0-2.75-3.52Q208.41,92.72,203,87.3a2.51,2.51,0,0,0-2.24-.91c-2.56.32-4.47-.77-6-2.8A106.67,106.67,0,0,0,181.47,70c-9.12-8.17-20.73-12-31.14-17.92a111.24,111.24,0,0,1-24.74-18.54c-.87-.88-1.61-1.89-2.57-3.05-.28,2.37,1.84,3.47,2.24,5.47-.54-.11-.9-.08-1.07-.24-1.58-1.49-2.06-.5-2.61,1a20.86,20.86,0,0,1-4.69,7.07,152.47,152.47,0,0,1-12.32,11.79c-.44.36-1.16.57-1.08,1.48a23,23,0,0,1,9.53.6,4.94,4.94,0,0,0,5.09-1.26c9.66-8.1,25.3-6.82,32.63,2.55a38.62,38.62,0,0,1,6.64,13c2,6.8,1.15,13.31-1.37,19.81-1.93,5-5.65,7.88-10.3,9.9-1.5.65-1,1.33-.24,2.22A30.28,30.28,0,0,1,152,117.4c.83,4.21.71,8.36-1.6,12.19s-3.31,4.35-7.45,3c-9-3-18.2-5.52-27.43-7.84A67.41,67.41,0,0,1,95,115.83a2.61,2.61,0,0,1-1.31-3.35,28.33,28.33,0,0,1,2.81-7.11,26,26,0,0,1,12.27-10.51c.6-.26,1.8-.36,1.53-1.15-.55-1.66-1.12-4-2.36-4.57-2.33-1-2.36-2.74-2.73-4.57-.34-1.68-.59-3.42-2.22-5.07.11.88.17,1.29.21,1.7.38,3.84-1.27,5.49-5.13,5-4.93-.65-8-3.63-9.87-8.08-.37-.88-.65-1.8-1.08-3-3.8,5.22-8.5,9-13.32,12.63A111.13,111.13,0,0,0,61.38,98a18.52,18.52,0,0,0-3.65,4.67c2.74-.67,5.19-1.3,7.65-1.87,8.1-1.87,15,.21,20.23,6.73,6.08,7.59,7.64,16.38,5.72,25.77-3.12,15.28-20.18,23-33.38,15.15A27.23,27.23,0,0,1,45.29,121.7c.26-1.68.64-3.35,1.06-5.54a26,26,0,0,1-4.89,4.21,16,16,0,0,0-5.82,7.94c-1.41,4-3,8-4.62,11.92a39.81,39.81,0,0,1-7,11.66c-.46.5-.81,1.33-1.91,1.16.83-2.59,2.84-4.43,3.77-7.45a43.42,43.42,0,0,0-9.32,12c-3.69,7.44-7.1,15-10.93,22.41C.91,189.16,1.73,198.48,4.08,208c.72-.11.45-1.33,1.48-1.27-.07,2.63-1.34,4.82-2.19,7.13-1.84,5.05-1.4,6.61,2.78,9.92.89.71,1.83,1.41,1.37,2.78-1.06.21-1.49-1.12-2.5-.95a17.41,17.41,0,0,0,1,6.86A6.85,6.85,0,0,0,13.91,236c3-.8,4.33-3,3.86-6.61a30,30,0,0,0-.95-3.93c-.65-2.32-1.7-4.53-2.09-6.93a8,8,0,0,1,2.1-7.05c-.06,2.25-1.71,4.28-.89,6.7.82-.28.62-.88.75-1.31,1.58-5.18,4.45-9.4,9.35-11.9a18.77,18.77,0,0,0,8.22-8.08c2.16-4,3.65-8.43,7.08-12.17-2.92.25-4.42,2.06-6.08,3.59A8.42,8.42,0,0,1,42,183.09c2.58-.48,5.2-.79,7.81-1.11,5.71-.71,10-3.33,12.45-8.74a16.89,16.89,0,0,1,2.56-4.17c3.59-4.16,8.86-3.43,11.26,1.5a23.61,23.61,0,0,0,2.42,4c1.49,1.95,2.8,1.72,3.71-.54.63-1.58,1.16-3.2,1.81-4.77a2.91,2.91,0,0,1,1.73-1.8c.63-.2,1.4,0,.94.72-1.08,1.67,0,2.68.64,4.06,1.36,2.89,1.24,6.1,1.06,9.23a43.46,43.46,0,0,0-.11,7c.27,2.55,1.2,4.69,3.95,5.5a6.82,6.82,0,0,0,7.17-2.07,6,6,0,0,0,.5-7,16.8,16.8,0,0,0-3.32-4.14c-3.61-3.63-5-8-3.7-12.91a44.88,44.88,0,0,1,12.46-21.24,16.73,16.73,0,0,1,4.05-2.75c.42-.21.84-.58,1.48-.07C110,145,108.46,145.59,107.54,147.24ZM207.2,71.92c6.73,6.63,15.68,10.41,22.28,17.2,3.91-10.31,15.41-14.83,23.74-8.08-5.41-14-15.7-22.22-30.77-25.17,1.33-.51,1.65-.79.65-1.63-5.66-4.76-12.25-8.14-18.21-12.61a4.42,4.42,0,0,0,.52,2.34c.11.41.38.87-.09,1.14s-.83-.14-1-.49c-.82-1.41-1.69-2.81-2.37-4.28A17.08,17.08,0,0,0,195,32.77Q170.74,17.9,146,3.82a18,18,0,0,0-3.89-1.71A7.56,7.56,0,0,0,133,6.33c1,.46,2-.44,3.3.07a10.32,10.32,0,0,1-3.51,1.45,10.6,10.6,0,0,0-7.87,8.4,28.37,28.37,0,0,1-.8,2.87c-1.91,5.9-.22,10.79,4.27,14.8,3,2.65,6.11,5.11,9.12,7.71,6.08,5.26,12.64,9.61,20.63,11.49a17,17,0,0,1,6.48,3.15c.27.21.67.44.72.72.22,1.13.17,1.15.92,1.51a72.52,72.52,0,0,1,13.89,8.28,84.34,84.34,0,0,1,13.34,12.83,13.38,13.38,0,0,0,5.93,4.67c.1-1-1.29-1.26-.89-2.73,8,5.56,14,13,20.74,19.61-.08,0,0,0,0,0,.11-.33.23-.66.32-1,1.12-4.2,3.31-7.54,7.62-9,1.38-.48.78-1,.18-1.59a68,68,0,0,0-8-6.34A61.92,61.92,0,0,1,207.2,71.92ZM89.77,121.57c0-8.57-4.52-14-12-17.49-5.23-2.41-10.49-2.11-16-.63a19,19,0,0,0-13.72,12.49c-3.72,10.1-.84,18.81,5.82,26.65,1.8,2.11,3.76,4.4,6.46,5.06,6.94,1.71,13.84,1.19,19.25-3.89C85.9,137.86,89.88,130.57,89.77,121.57ZM254.42,93c-.08-1.47-.1-2.4-.2-3.31-.87-8-8-12-15.27-8.53a15,15,0,0,0-8.14,9.11A3.46,3.46,0,0,1,228,92.87a9.8,9.8,0,0,0-7.5,8.78c-.09,1.31.26,2.19,1.64,2.54,2,.5,2.21,1.47.75,2.88a5.77,5.77,0,0,1-1.77,1.16,8.16,8.16,0,0,0-3.76,3.29c-3.62,5.34-9,7.57-15.18,8.06a2.55,2.55,0,0,0-2,.82,15.15,15.15,0,0,0-3.31,5.66c-.61,2.28-1,4.59.46,6.78.53.82,1,1.17,2.06.77,8-3,16.32-4.85,24.38-7.59,7.24-2.47,14.19-5.49,20-10.69A32.73,32.73,0,0,0,254.42,93ZM134.58,52.4a25.81,25.81,0,0,0-16,5c-1.46,1-1.32,1.54.17,2.45a11.85,11.85,0,0,1,5.65,9.32c.43,4-1.93,7.06-5.44,7.31a3.55,3.55,0,0,1-4-2.75c-.15-.54.27-1.48-.71-1.51s-1.19.8-1.35,1.46A8.42,8.42,0,0,0,115.51,82c1.82,1.7,1.28,2.76.08,4.19a5,5,0,0,1-2,1.55c-.64.24-.75.67-.48,1.36a5.12,5.12,0,0,0,5.26,3.37c6.93-.48,13.46.57,19.22,4.79a5.24,5.24,0,0,0,4.28.76,11.83,11.83,0,0,0,6-3.53c7.11-7.12,8.77-15.65,6.43-25.16C151.74,59.07,143.53,52.44,134.58,52.4ZM96.21,162.92c2.51-1.09,4.54-2.09,6.66-2.86,7.35-2.66,14.89-4.76,22.42-6.79,20.09-5.44,40.36-10.19,60.38-15.91,3-.87,4.46-3,3.93-6.21a4.17,4.17,0,0,0-2.68-3.33c-.76-.33-1.63-.42-2,.51-1.68,4-4.9,3.95-8.38,3.22a19.68,19.68,0,0,0-13.8,2.1,62.53,62.53,0,0,0-12.24,8.84c-3.47,3.1-7.4,4.73-12.13,3.7a38.46,38.46,0,0,1-5.62-1.23,6.39,6.39,0,0,0-6.4.83A14.89,14.89,0,0,1,115,148.24a19.52,19.52,0,0,0-7.42.22,5.74,5.74,0,0,0-3.08,1.35A40.39,40.39,0,0,0,96.21,162.92Zm10.26-104.5c-9.71,0-15.32,4.24-17.38,12.22-1.83,7.08,2.35,11.62,6.92,14a5,5,0,0,0,4.32.39c1.72-.71,2-2.13,1.74-3.7s-.89-2.79-2.54-2.59c-2.11.25-1.38-.87-1-1.69,1.06-2,4-2.28,5.93-.58,2.21,2,3.19,4.67,3.86,7.45s.92,3,3.71,1.91c.59-.24,1.14-.58,1.7-.87,1.17-.61,1.53-1.16.43-2.38-2.29-2.53-2.95-5.77-3.27-9A4.59,4.59,0,0,1,112.11,70a2.66,2.66,0,0,1,3.47-.68,1.92,1.92,0,0,1,.76,2.75c-.7,1.6.2,2.42,1.57,2.87,2.29.75,4.7-1,5-3.91a8.79,8.79,0,0,0-3.77-8.53A23.23,23.23,0,0,0,106.47,58.42ZM119.83,94C107,93.07,97.3,104.66,94.68,112.6c-.44,1.34.11,1.89,1.19,2.47,7.83,4.25,15.92,7.79,24.7,9.66,7.36,1.57,14.36,4.43,21.61,6.44,1.4.39,2.1.17,2.42-1.31s.81-3,1.29-4.5c3.41-10.53-.5-18.86-7.86-26.13a14.59,14.59,0,0,0-7.43-4A53.44,53.44,0,0,0,119.83,94ZM58.4,181.73A75.65,75.65,0,0,0,74.9,175c.42-.23.93-.46.73-1.12-1.08-3.47-4-5.91-7.56-4.13a9.23,9.23,0,0,0-3.51,3.61C62.7,176.26,61.19,179.42,58.4,181.73Zm84.3-80c-.1.23-.17.32-.15.35.33.54.67,1.07,1,1.61,3.78,5.85,6,12,4.43,19.14a77.35,77.35,0,0,1-2.22,7.77c-.13.42-.61.93.06,1.29a1.15,1.15,0,0,0,1.54-.25,10.5,10.5,0,0,0,1.05-1.6,20.22,20.22,0,0,0,1.67-14.67A27.1,27.1,0,0,0,142.7,101.74Zm14.22-22c-1.89,9-6.2,16.3-15.23,20.2.82.52,1.15,2,2.83,1.24C152.93,97.26,158,88.42,156.92,79.75ZM90.68,127.81c-3.8,12.34-10.63,21.21-25,21.83C75.2,153,91.32,141.32,90.68,127.81ZM50.62,184.72c-6.15-1.24-9.14.21-9.94,4.77A98.29,98.29,0,0,1,50.62,184.72Zm58.57-97c-1.74-.24-1.74-1.57-2-2.74a13.82,13.82,0,0,0-3.17-7.28c-1-1.14-2.25-1.8-4.18-.43,2.51.21,4.27,1,5.2,3a14.38,14.38,0,0,1,1.66,5.87C106.76,87.71,107.38,88.29,109.19,87.71Zm1.53,1.06c-.27.1-.93,0-.84.76A5.62,5.62,0,0,0,112,93.32a1.48,1.48,0,0,0,1.93-.3c.58-.6-.26-.92-.53-1.34-.46-.7-1-1.37-1.42-2.08C111.67,89.19,111.54,88.67,110.72,88.77Z"/><path d="M169.52,82c-.91-.29-1.52-.45-2.11-.67A5.13,5.13,0,0,1,165,73.13c3.51-4.71,10.2-5.74,15.73-2.43,6.21,3.74,10.08,12.41,8.58,19.54-.32,1.5-.08,2,1.51,2.08,7.25.46,11.48,5.14,12.16,12.65.19,2-.9,3.57-1.93,5.07-5.22,7.59-20,11.47-28.38,7.51a10.49,10.49,0,0,1-3.41-16.93c.86-1,1.26-1.65.46-2.89a3.71,3.71,0,0,1,.19-3.87c.55-1,.14-1.4-.79-1.65a9,9,0,0,0-3.18-.16,3.14,3.14,0,0,1-3.71-2.71,17.42,17.42,0,0,1-.39-3.38c-.06-2.85.29-3.13,3.08-2.63C166.33,83.59,167.62,83.23,169.52,82Zm19,5.68c-.36-4.74-1.57-9-4.4-12.5a13.22,13.22,0,0,0-9.39-5.3c-4-.33-8.38,2.17-9.06,5.25-.27,1.2-.42,2.46,1,3.12a2.42,2.42,0,0,0,3.22-.8c1-1.56,1.52-.69,2,.29a3.55,3.55,0,0,1-.7,4.32,7.64,7.64,0,0,1-5.68,2.53c-2.63,0-2.9.33-2.42,2.9.24,1.33.37,2.2,2.33,1.45,3.08-1.18,6.15-.27,8.88,1.52a1.62,1.62,0,0,1,.88,1.79c-.2.73-.91.53-1.45.57a2.91,2.91,0,0,0-2.42,1.51c-.6,1-.94,2.17-.14,3.2,1,1.22,1.84.06,2.59-.36a37.78,37.78,0,0,1,11.9-4.47A2.55,2.55,0,0,0,188,90.53C188.2,89.5,188.35,88.44,188.5,87.63ZM188,94.07a33.21,33.21,0,0,0-14.06,4.34,16.53,16.53,0,0,0-5.27,4.58c-2.2,2.93-1.81,5.56,1.14,7.69a10.78,10.78,0,0,0,4.17,2,27.91,27.91,0,0,0,23.24-5.34,8.61,8.61,0,0,0,2.21-2.84c2.35-4.39,1.06-7.78-3.62-9.37A22.7,22.7,0,0,0,188,94.07Zm13.49,8.29c-2.75,7.11-8.55,9.32-14.48,11.15s-12.19,2.63-18-1.26a8.31,8.31,0,0,0,5.93,5.26c7.92,2.36,20.8-2,25.68-8.71a8.33,8.33,0,0,0,.78-1.27C202.13,106.08,202.1,104.61,201.47,102.36ZM164.75,91.24c2.82-1.32,5.58,1,8.74.23C170.44,89.23,166.74,89.16,164.75,91.24Z"/><path d="M54.48,155.48c-.27,4.42-2.28,8.4-5,12-3.45,4.57-7.61,8.24-13.49,9.36-3,.58-5.61-.43-8.11-1.87a3.19,3.19,0,0,1-1.71-3c.54-5.82-.22-11.86,2.5-17.35,2.62-5.3,6.67-9.2,12.62-10.1C48.07,143.48,54.5,147.32,54.48,155.48ZM28.07,165.61h-.14c0,1.62-.13,3.27,0,4.88.38,3.91,2.62,5.18,6.22,3.61a16.33,16.33,0,0,0,6.8-5.64,82.83,82.83,0,0,0,7.11-11.6A16.8,16.8,0,0,0,49.7,152c.47-3-.75-4.82-3.67-5.48a10.71,10.71,0,0,0-8.42,1.17c-5.5,3.54-9.61,8-9.42,15.11C28.22,163.76,28.11,164.68,28.07,165.61Zm9.21,8.89c8.4-.26,19.26-17,14.42-22.59C49,160.7,43.83,167.94,37.28,174.5Z"/><path d="M60,155.4c1.77.45,3.52,1,5.31,1.32,5.28,1,9.86-.17,13.34-4.53.6-.75.85-1.74,2.38-.68,1.16.81,2.89-.13,4-1.26s2.36-2.65,3.57-3.94c.53-.57,1.14-1.31,2-1.07,2.49.71,4.7,0,6.93-1.08-1.48,1.67-3.06,3.1-5.48,2.55A2.67,2.67,0,0,0,89,147.92c-2.08,2.82-4.45,5.24-8.42,4.78a1.31,1.31,0,0,0-1.25.65c-2.92,3.93-7.11,4.69-11.59,4.42-2.7-.16-5.44-.43-7.85-1.84Z"/><path d="M44.57,176.86A48.5,48.5,0,0,0,35.69,183c-2.35,1.86-4.84,1.55-7.06-.58a11.11,11.11,0,0,0-3.45-2.05,4.66,4.66,0,0,1-3-4.89c.11-2,.28-4.08.46-6.55a7.13,7.13,0,0,1,.76,4.64c-.21,2.8.61,4.89,3.52,5.75A4.67,4.67,0,0,1,29,180.73c1.67,1.85,3.65,2,5.82,1.05s4.25-2.56,6.39-3.81A5.25,5.25,0,0,1,44.57,176.86Z"/><path d="M47.91,142.7c-3-1-5.43-.65-7.89-.45-1.32.11-2.62,0-3.35-1.3a3.56,3.56,0,0,1,.27-3.64,24.59,24.59,0,0,0,3.1-10,4.08,4.08,0,0,1,1.64-3.17,8,8,0,0,0,.15,6.91c.59,1.26-.41,2.43-1.28,3.41a9.71,9.71,0,0,0-2.62,4.31c-.34,1.53.22,2.37,1.84,2.27,1-.06,2-.29,3-.36C44.5,140.51,46.27,140.5,47.91,142.7Z"/><path d="M80.05,85.34c-.39.57-.75,1.16-1.18,1.7-1.43,1.83-2.11,3.68-.4,5.76A4.17,4.17,0,0,1,79,95.46c.13,3.49,1.71,4.81,5.13,3.81s6.69-1,10.34-1.59a3.44,3.44,0,0,1-3.07,1.59,51,51,0,0,0-8,1.29c-3,.56-5.14-1.1-5.32-4.19a5.74,5.74,0,0,0-1.28-3.9c-1-1.07-.62-2.41-.09-3.62A14.27,14.27,0,0,1,79.65,85Z"/><path d="M161.36,105.74c.12.72-.3,1-.53,1.3-1.86,2.73-1.52,4.33,1.39,6.07a10.28,10.28,0,0,1,4.1,3.93A7.31,7.31,0,0,0,174,121.3a6.81,6.81,0,0,1,1.27.07c.12,0,.22.14.35.22.14.62-.37.68-.74.78-3.24.84-7.4-.74-9-3.68a14.42,14.42,0,0,0-5.2-5.15C157.68,111.55,158,107.67,161.36,105.74Z"/><path d="M137.35,134.46c-5.08.38-9.73.5-14-2.39a38.05,38.05,0,0,0-13.49-5.55c-.62-.13-1.24-.31-1.85-.49-.1,0-.18-.18-.44-.45,1.83-.33,3.41.25,5,.6a28.81,28.81,0,0,1,10,4.15c3.56,2.4,7.35,3.92,11.78,3.36A3.6,3.6,0,0,1,137.35,134.46Z"/><path d="M8.75,207.6c.14-.69.61-.8,1-.93a6.26,6.26,0,0,0,4.19-5.42A4.73,4.73,0,0,1,18.27,197c2.6-.41,4.81-1.2,5.54-4.53.65,2.62.09,4.25-2.09,4.62-4.5.75-6.85,3.06-7.81,7.53C13.35,207.22,11.32,208,8.75,207.6Z"/><path d="M15.21,173.93a7.12,7.12,0,0,1-.8,6.42c-1.69,2.84-2.44,5.69-1.34,8.91a2.11,2.11,0,0,1-.68,2.48c-1-3.26-2.38-6.29-.49-9.63C13.35,179.55,14.87,177,15.21,173.93Z"/><path d="M163,79.56c-2-2-2.1-4.35-.64-7.07,2.06-3.84,6.2-6.17,10.13-5.33C166.1,68.94,161.33,71.73,163,79.56Z"/><path d="M104.15,94.23c-4.93,3.27-7.64,8.4-11,13C94.47,100.9,98.76,97.09,104.15,94.23Z"/><path d="M129.3,49.35c-5.52,1-10.72,2.82-15,6.62C117,51.51,124.8,48,129.3,49.35Z"/><path d="M199,114.26c4.76-3.26,6.39-7.58,6.38-12.75a3.22,3.22,0,0,1,.93,3.64,60,60,0,0,1-2.36,6.15A4.84,4.84,0,0,1,199,114.26Z"/><path d="M157.79,68.63c-1.94-4.11-3.34-8.52-6.24-12.13A17,17,0,0,1,157.79,68.63Z"/><path d="M148.25,101.92c3.21-2,6.33-3.68,8.43-6.6C155.24,98.91,151.25,102.13,148.25,101.92Z"/><path d="M48.45,174.18c2.18-2.34,4.09-4.92,6.22-7.66C54.47,169,51.82,172.24,48.45,174.18Z"/><path d="M92.75,191.69c-3-.22-4.18-3.21-3.07-7.2C90,187.19,89.82,190.11,92.75,191.69Z"/><path d="M10,233.11c-2-.17-2.59-1.59-2.69-3.36C8.15,230.91,9.08,232,10,233.11Z"/><path d="M199.05,66.68l-15-11.77.36-.47c5.14,3.73,10.75,6.86,15,11.8Z"/><path d="M143.43,42.12a26.76,26.76,0,0,1-11.17-8.61C135.6,36.87,139.67,39.26,143.43,42.12Z"/><path d="M149.4,12.52l-5.72-3.43A11.39,11.39,0,0,1,149.4,12.52Z"/><path d="M49.19,126.62c-1.09-3.56-.46-8.45,1.53-12.29A63.47,63.47,0,0,0,49.19,126.62Z"/><path d="M83.35,131.7c-.19,1.47-.52,3-2.39,3.19-1.51.13-1.89-1.11-1.83-2.32.09-1.53.45-3.1,2.35-3.25C83,129.2,83.29,130.38,83.35,131.7Zm-3.52.74c.22.53,0,1.67,1,1.67,1.44,0,1.76-1.28,1.88-2.42.07-.74-.13-1.82-1.08-1.73C80.48,130.08,79.94,131.1,79.83,132.44Z"/><path d="M73.39,130.89c-.12,1.09-.41,2.3-1.62,2.1-1.65-.27-1.88-1.93-2.22-3.27-.23-.91.4-1.35,1.21-1.3A2.63,2.63,0,0,1,73.39,130.89Zm-2.46-1.76c-.31.12-.83.18-.66.75.26.92.43,2.05,1.49,2.35.68.19.86-.6.86-1.15A1.87,1.87,0,0,0,70.93,129.13Z"/><path d="M72.73,106.9c-.14,1.18-.32,2.42-1.57,2.25-1.68-.22-1.89-1.87-2.2-3.22a1,1,0,0,1,1.12-1.36A2.67,2.67,0,0,1,72.73,106.9Zm-1.57,1.53a1.12,1.12,0,0,0,.84-1.31,1.83,1.83,0,0,0-1.72-1.8.56.56,0,0,0-.64.8C70,107,70.05,108.07,71.16,108.43Z"/><path d="M79,123.15c0,.89-.5,1.31-1.33,1.21s-1.76-.25-1.84-1.33.64-1.3,1.5-1.35C78.39,121.62,78.86,122.21,79,123.15Z"/><path d="M58.1,113.64c-.75-.2-1.83-.25-1.8-1.48,0-1,.84-1.19,1.68-1.18a1.35,1.35,0,0,1,1.49,1.4C59.53,113.26,59.11,113.69,58.1,113.64Z"/><path d="M51.69,125.59a1.64,1.64,0,0,1-.42-2.41,1.34,1.34,0,0,1,1.69-.49,2,2,0,0,1,1.22,2.24,1.36,1.36,0,0,1-.87,1.33,1.19,1.19,0,0,1-1.69-.75,1.32,1.32,0,0,1,.41,0c.65.35,1.27.47,1.43-.47.12-.71,0-1.54-.86-1.66s-.92.7-1,1.32A4,4,0,0,0,51.69,125.59Z"/><path d="M63.11,122.31a1.06,1.06,0,0,1,1.17,1.14c0,.81-.23,1.69-1.08,1.79s-1.08-.69-1.18-1.44A1.17,1.17,0,0,1,63.11,122.31Z"/><path d="M71.57,143.1c-.19.81-.41,1.75-1.38,1.57-1.5-.29-1.35-1.8-1.64-2.89-.15-.55.22-1.32.84-1.23C70.78,140.75,71.16,142,71.57,143.1Zm-.65-.11c-.19-.68-.38-1.51-1.28-1.63-.51-.07-.67.55-.55.94.2.69.22,1.65,1.21,1.73C70.76,144.06,70.91,143.52,70.92,143Z"/><path d="M76.91,139.29c-.2.69-.31,1.61-1.33,1.53s-.93-1-1-1.65a1.08,1.08,0,0,1,1.08-1.29C76.59,137.84,76.87,138.43,76.91,139.29Z"/><path d="M60.31,140.63a1.26,1.26,0,0,1,1.22,1.42c0,.8-.35,1.43-1.16,1.51s-1.08-.72-1.15-1.43A1.24,1.24,0,0,1,60.31,140.63Z"/><path d="M70.58,114.69c-1,0-1.9.09-1.79,1.4s1,1.46,2.21,1.11c-.84,1-1.6,1.07-2.33.36a2,2,0,0,1-.48-2.48C68.78,114,69.68,114.35,70.58,114.69Z"/><path d="M61.05,132.56c-1.12-.21-1.62.44-1.52,1.38s.83,1.54,1.94,1.13c-.46,1.15-1.28,1-2,.4a2,2,0,0,1-.42-2.64C59.51,132.08,60.24,131.55,61.05,132.56Z"/><path d="M240.62,114.16c8.19-7.14,13.51-15.45,11.4-27a6.86,6.86,0,0,1,1.14,4.31C253.08,101.28,248.21,108.48,240.62,114.16Z"/><path d="M142.63,82.48c0-2.09,1.12-3.74,2.45-3.64s1.76,1,1.79,2.17c0,1.78-1.05,3.47-2.38,3.48C143,84.51,142.72,83.4,142.63,82.48Zm3.65-1.09c-.05-.81-.13-1.82-1.06-1.81-1.21,0-1.79,1-1.83,2.2,0,.83,0,2,1.08,1.92S146,82.44,146.28,81.39Z"/><path d="M119.32,79.37a1.06,1.06,0,0,1-1.41,1.07c-.82-.17-1.78-.35-1.78-1.45s.86-1.2,1.64-1.23C118.8,77.73,119.31,78.31,119.32,79.37Z"/><path d="M133.09,79.29c-.13-.92.31-1.35,1.19-1.31a2.47,2.47,0,0,1,2.58,2.54,1.92,1.92,0,0,1-1.38,2.15C134.56,82.9,133.16,80.84,133.09,79.29Zm1.57-.63c-.54,0-1,.1-.88.65.2,1,.38,2.08,1.43,2.45.68.24.93-.52.95-1.09A2,2,0,0,0,134.66,78.66Z"/><path d="M142.56,72.72c-.07,1-.68,1.24-1.46,1.17s-1.72-.35-1.74-1.41.8-1.21,1.61-1.22A1.47,1.47,0,0,1,142.56,72.72Z"/><path d="M152,74.86a1.14,1.14,0,0,1,1.25,1.19c0,.86-.3,1.66-1.19,1.74s-1.14-.8-1.23-1.48A1.25,1.25,0,0,1,152,74.86Z"/><path d="M134.37,64.91c1.32.71.73,1.49,0,2.15a1.5,1.5,0,0,1-2.4-.15,1.85,1.85,0,0,1,.2-2.82c1.08-.83,1.83-.29,2.24.87-.51-.46-1-1.16-1.74-.46a1.34,1.34,0,0,0-.23,1.73c.3.53.76.88,1.37.59C134.7,66.42,134.77,65.71,134.37,64.91Z"/><path d="M129.6,90.5c-.18.7-.33,1.49-1.21,1.48s-1.23-.73-1.22-1.6.41-1.12,1.16-1.15C129.24,89.19,129.55,89.72,129.6,90.5Z"/><path d="M140.86,57.28c1.23-.08,1.66.32,1.68,1.06s-.27,1.59-1.21,1.66-1.18-.66-1.24-1.39A1.12,1.12,0,0,1,140.86,57.28Z"/><path d="M125.1,83c.42.74,1,1.5-.13,2.13a1.48,1.48,0,0,1-2.1-.23,2,2,0,0,1-.11-2.71c.76-.78,1.66-.52,2.32.37-.66-.32-1.33-.59-1.87.16a1.23,1.23,0,0,0,.13,1.55c.31.41.74.74,1.25.43S125.7,83.8,125.1,83Z"/><path d="M147.05,63.63c-.93,0-1.92,0-1.85,1.29.09,1.54,1.21,1.38,2.28,1.24-.69.81-1.52,1.14-2.37.34a1.94,1.94,0,0,1-.4-2.67A1.41,1.41,0,0,1,147.05,63.63Z"/><path d="M138.92,90.35a1.08,1.08,0,0,1,1.81-.26,1.18,1.18,0,0,1,.3,1.35c-.27.77-.7,1.36-2,.92.74-.45,1.68-.43,1.51-1.42C140.33,89.79,139.4,90.75,138.92,90.35Z"/><path d="M118.39,97.23a36.37,36.37,0,0,1,15.3,3.28c6.63,3,10.16,8.24,10.4,15.56a64,64,0,0,1-1,10.61c-.15,1.13-.69,1.71-1.9,1.11-.64-.31-1.32-.52-1.95-.84-3-1.51-5.82-3.26-8.93-4.54-2.47-1-2.56-2.24-.51-4,1.18-1,.85-1.73-.31-2.22-4.18-1.77-8.31-3.75-12.93-4.16a11.35,11.35,0,0,0-2.54.05c-1.22.15-1.59.86-1,2a14.5,14.5,0,0,0,.88,1.46c1.39,2.13,1.09,2.93-1.43,3a14.18,14.18,0,0,1-11-5.12,2.44,2.44,0,0,1-.41-2c.4-7.1,5-12.15,12.27-13.55A22.26,22.26,0,0,1,118.39,97.23Zm-6,19.44c.07-.64-.53-.76-.87-1.07-2-1.79-1.82-3.24.6-4.36a9.84,9.84,0,0,1,5.85-.46c4.47.73,8.51,2.7,12.58,4.51,2.37,1.06,2.5,2.66.45,4.29-1,.81-.95,1.25.21,1.74a82,82,0,0,1,8.9,4.56c1,.57,1.48.53,1.62-.77.2-1.83.65-3.64.83-5.47.87-9-2.65-15.43-10.35-18.51a34.26,34.26,0,0,0-18-2.26c-6.81,1-11.44,5.61-12.27,12a2.38,2.38,0,0,0,.17,1.84C103.71,115.06,109.38,117.26,112.4,116.67Z"/><path d="M181.79,110.2c-2.47-.08-4.39-.33-5.26-2.29s-.11-3.84,1.37-5.22c4.14-3.86,7.84-5.36,12.26-3.24,2.58,1.23,3.07,3.17,1.17,5.29A18.39,18.39,0,0,1,181.79,110.2Zm4.35-7.65c-2.86.48-5.51,1.17-7.54,3.28-.52.55-1.14,1.16-.73,2a2.22,2.22,0,0,0,1.89,1.17,7,7,0,0,0,3.13-.38,32.75,32.75,0,0,0,5.35-2.54c.64-.33,1.64-.54,1.48-1.54-.12-.83-.87-1.27-1.62-1.54A20.17,20.17,0,0,0,186.14,102.55Zm5,.73c.41-2-.87-2.75-2.34-3.21a9.28,9.28,0,0,0-10.36,4.2C182.63,102.09,186.7,100.45,191.13,103.28Z"/><path d="M169.14,105.35c-.09,3.74,2.91,4.63,5.69,5.94C171,111.15,168.51,108.48,169.14,105.35Z"/><path d="M31.7,164.8c.51-3,.12-6.37,1.8-9.44a6.9,6.9,0,0,1,4-3.54c1.8-.57,3.68-.68,5.21.73s1.26,3.19.68,4.93a19,19,0,0,1-7.74,9.83c-.87.58-1.89,1.11-3,.39C31.79,167.08,31.55,166.15,31.7,164.8Zm10.46-7.75c0-1.11-.71-1.14-1.45-1.14a5.62,5.62,0,0,0-4.88,3.85c-.53,1.55-.46,3.25-1.3,4.71-.28.47-.64,1.11,0,1.51s1.09-.08,1.54-.42a20.71,20.71,0,0,0,5.41-6.78A13.35,13.35,0,0,0,42.16,157.05Zm-8.88,7.56A5.78,5.78,0,0,0,34.59,161c.43-3.6,2.75-5.21,5.94-6.08.51-.13,1.5.35,1.42-.69-.06-.78-.85-1.09-1.54-1.29-1.79-.54-4.21.73-5.45,2.89A15.18,15.18,0,0,0,33.28,164.61Z"/><path d="M108.74,109.42a3.51,3.51,0,0,1-2.45-2.38c-.19-.63-.38-1.27.3-1.7a1.51,1.51,0,0,1,1.78.17c1.38,1.08,1.74,2.67,2.07,4.26.06.28,0,.64-.31.66-.74,0-.94-.76-1.47-1.07,1.65-.82.14-1.68,0-2.45s-.66-1.37-1.55-1c-.6.26-.37.85-.2,1.3A4.82,4.82,0,0,0,108.74,109.42Z"/><path d="M124.7,109.31v-3l.44,1.78A4.18,4.18,0,0,0,127,106c.37-.64,1-1.38.23-2.11s-1.47-.06-2.29,1c.44-1.77,1.21-2,2.22-1.66s1,1.26.75,2.13A6.73,6.73,0,0,1,124.7,109.31Z"/><path d="M116.13,108.49c-.16-1.12-1-1.62.23-2.25.59-.3.79-1.43,1.07-2.23a1.46,1.46,0,0,0-.38-1.74c-.67-.55-1,.23-1.65.68.26-1.23.86-1.55,1.63-1.31a1.62,1.62,0,0,1,1.09,1.85C118,105.17,117.14,106.57,116.13,108.49Z"/><path d="M132.53,111.76c1-.26,2-.47,3-.8.58-.2,1.32-.54.93-1.36s-1.13-.74-1.81-.34c-.41.24-.77.56-1.51,1.11a3.07,3.07,0,0,1,2-1.88,1.6,1.6,0,0,1,2,.83c.48.93,0,1.5-.81,1.89C135.13,111.81,133.9,112.34,132.53,111.76Z"/></g></g></svg>