<svg xmlns="http://www.w3.org/2000/svg" viewBox="0 0 728.92 282.3"><defs><style>.a{font-size:125.33px;font-family:PlayfairDisplay-Regular, Playfair Display;letter-spacing:0.08em;}.a,.f{fill:#fff;}.b{letter-spacing:0.1em;}.c{letter-spacing:0.09em;}.d{letter-spacing:0.1em;}.e{letter-spacing:0.09em;}</style></defs><text class="a" transform="translate(0 252.09)">N<tspan class="b" x="98.38" y="0">ap</tspan><tspan class="c" x="258.68" y="0">o</tspan><tspan class="d" x="338.64" y="0">litan</tspan><tspan class="e" x="655.47" y="0">a</tspan></text><path class="f" d="M334.41,132.93c.1-1.33.19-2.66.31-4a12.51,12.51,0,0,0-.24-3.66c-.09-.41-.27-.84-.7-.94s-.62.4-.81.75a13,13,0,0,1-.91,1.58c-1.1,1.45-2.47,1.69-3.81.44-.88-.82-1.47-.66-2.37-.16-5.2,2.92-10.93,4.56-16.48,6.64a64.41,64.41,0,0,0-7.83,3.49,3.52,3.52,0,0,0-1.7,1.88c-.48,1.18-1,2.33-1.61,3.47a11.27,11.27,0,0,1-5.42,5.2,12.85,12.85,0,0,0-7.17,15.19,13.2,13.2,0,0,1,.39,2.57c.15,3.25-1.44,5.22-4.65,5.81a4.48,4.48,0,0,1-5-2.16c-1.38-2.12-1.71-4.56-2.07-7-.09-.55,0-1.12-.53-1.55a3.9,3.9,0,0,1-.92-4.79c1.37-3,1.05-5.82.19-8.75-1.73-5.86-.72-11.43,1.79-16.84,2.39-5.15,4.76-10.3,7.15-15.45a36.57,36.57,0,0,1,9-11.51,12.94,12.94,0,0,0,3.49-5.48q1.14-3.16,2.35-6.32a10.94,10.94,0,0,1,4.25-5.3c2.72-1.78,4.63-4.34,6.65-6.75,4.91-5.86,9.29-12.14,15.64-16.72,3.88-2.8,7.22-6.34,10.81-9.53a2.27,2.27,0,0,0,.76-1.44A11.88,11.88,0,0,1,342.82,42,4.57,4.57,0,0,0,345,40.27a23.51,23.51,0,0,1,5.45-5.13,31.71,31.71,0,0,0,7.7-8.85c1.49-2.44,1.57-5,1.5-7.65-.13-4.73,1-9.1,4.34-12.52,1.72-1.77,3.78-3.25,5.64-4.92a5.16,5.16,0,0,1,5.06-.94,10.32,10.32,0,0,1,3.11,1.28c7.65,4.94,15.92,8.82,23.57,13.77,3.82,2.47,7.76,4.74,11.63,7.15,2.12,1.32,4.28,2.61,5.5,5a3.62,3.62,0,0,0,1.14,1c5.38,3.89,11.21,7.14,16.42,11.3a3.07,3.07,0,0,0,1.11.48c9.48,2.36,15.22,8.75,18.2,17.65,3.81,11.39-1,23-11.64,29.3-5.42,3.22-11.36,5.1-17.34,6.9-3.32,1-6.64,2-10,3-.75.22-1.22.42-1.05,1.46.4,2.37-.46,3.94-2.2,4.49a4.38,4.38,0,0,1-4.78-2.49c-.53-1.29-1.1-1.2-2.17-.82-3.67,1.32-7.58,1.65-11.33,2.67-6.5,1.79-12.85,4.09-19.45,5.56-9.68,2.14-19.17,5-28.62,8a28.52,28.52,0,0,0-3.39,1.41c-1.52.7-3.07,1.28-3.39,3.35-.36,2.4-.52,4.67,1,6.77s3.2,3.6,4.31,5.77a5,5,0,0,1-2.12,7.07,5.84,5.84,0,0,1-8.74-4.65c-.07-.92,0-1.84,0-2.76Zm15.15-27a19.76,19.76,0,0,1,6.14-.29c2.81.26,4.9-1.34,7.36-2.43-1-.78-2.19-.6-3.11-1.36a3.56,3.56,0,0,1,2.1.14c2.37.63,4.73,1.3,7.1,2,3.85,1,7.36.74,10.35-2.29a43.27,43.27,0,0,1,3.92-3.19c4.93-3.94,10.37-6.08,16.81-4.88a3.17,3.17,0,0,0,3.66-1.88,5.24,5.24,0,0,1,1.9-2.54c.33-.19.75-.59,1.1-.24s-.1.73-.32,1c-.55.72-.52,1,.48,1.31,2.56.72,3.37,2.29,2.7,4.91a16.49,16.49,0,0,0-.48,1.93,3.38,3.38,0,0,0,1.73,3.49,2.36,2.36,0,0,0,2.62,0,1.93,1.93,0,0,0,.72-2.19,8.36,8.36,0,0,0-1.17-3.31c-2.75-4.14.71-11.06,4.89-13,.41-.18.9-.5,1.28-.12s-.5.62-.15,1.15c2.62-.43,5.3-1.06,7.07-3.17,1.42-1.7,2.35-3.8,4.94-4.57A9.2,9.2,0,0,1,428,73.09a14.1,14.1,0,0,0-2-2.53c-2.63-2.58-5.26-5.17-7.86-7.77a1.82,1.82,0,0,0-1.61-.65,4.54,4.54,0,0,1-4.36-2,75.67,75.67,0,0,0-9.5-9.78c-6.55-5.88-14.91-8.67-22.39-12.89a79.8,79.8,0,0,1-17.8-13.33c-.63-.64-1.15-1.37-1.85-2.2-.2,1.71,1.32,2.5,1.62,3.93-.4-.08-.65-.05-.78-.16-1.13-1.08-1.48-.36-1.87.7a14.92,14.92,0,0,1-3.38,5.09A107.54,107.54,0,0,1,347.43,40c-.31.26-.83.41-.78,1.07a16.32,16.32,0,0,1,6.86.43,3.56,3.56,0,0,0,3.66-.91c6.95-5.82,18.2-4.91,23.47,1.83a27.92,27.92,0,0,1,4.78,9.37c1.44,4.89.82,9.58-1,14.25-1.39,3.58-4.06,5.67-7.41,7.12-1.08.47-.69,1-.17,1.6a21.77,21.77,0,0,1,4.68,9.71,11.93,11.93,0,0,1-1.15,8.77c-1.65,2.73-2.39,3.13-5.36,2.13-6.5-2.18-13.09-4-19.74-5.64a48.35,48.35,0,0,1-14.71-6.39,1.89,1.89,0,0,1-.94-2.41,20.7,20.7,0,0,1,2-5.11,18.76,18.76,0,0,1,8.83-7.56c.43-.19,1.3-.26,1.1-.83-.4-1.19-.81-2.9-1.69-3.29-1.69-.73-1.7-2-2-3.28a6.29,6.29,0,0,0-1.6-3.65c.08.64.12.93.15,1.23.28,2.76-.91,4-3.68,3.58-3.55-.47-5.78-2.61-7.11-5.81-.26-.64-.46-1.3-.77-2.19a44.19,44.19,0,0,1-9.58,9.09,80.83,80.83,0,0,0-9,7.44,13.46,13.46,0,0,0-2.62,3.36c2-.48,3.73-.94,5.5-1.35,5.83-1.34,10.8.15,14.55,4.84,4.38,5.46,5.5,11.79,4.12,18.54a16.19,16.19,0,0,1-24,10.9,19.61,19.61,0,0,1-9.11-19.27c.19-1.21.46-2.41.77-4a19.14,19.14,0,0,1-3.52,3,11.55,11.55,0,0,0-4.19,5.71c-1,2.89-2.15,5.74-3.33,8.57a28.14,28.14,0,0,1-5,8.39c-.33.36-.58,1-1.37.83.59-1.86,2-3.18,2.71-5.35a31.27,31.27,0,0,0-6.7,8.64c-2.66,5.36-5.11,10.82-7.87,16.12-3.42,6.57-2.83,13.27-1.14,20.08.52-.07.32-.95,1.06-.91,0,1.89-1,3.47-1.57,5.13-1.32,3.63-1,4.75,2,7.13.64.51,1.31,1,1,2-.77.16-1.08-.8-1.81-.68a12.35,12.35,0,0,0,.74,4.94,4.9,4.9,0,0,0,5.66,2.57c2.14-.58,3.12-2.19,2.78-4.76a21.47,21.47,0,0,0-.69-2.82,45.46,45.46,0,0,1-1.5-5,5.73,5.73,0,0,1,1.51-5.07c0,1.62-1.23,3.08-.64,4.83.59-.21.45-.64.54-.95a13.41,13.41,0,0,1,6.73-8.56,13.54,13.54,0,0,0,5.91-5.81c1.55-2.9,2.62-6.07,5.09-8.76-2.1.19-3.18,1.49-4.37,2.59a6.06,6.06,0,0,1,4.83-3.76c1.86-.34,3.74-.56,5.62-.8,4.11-.5,7.22-2.39,9-6.28a11.9,11.9,0,0,1,1.85-3c2.58-3,6.37-2.47,8.1,1.08a16.84,16.84,0,0,0,1.74,2.88c1.07,1.4,2,1.24,2.66-.39.45-1.13.84-2.3,1.31-3.43a2.08,2.08,0,0,1,1.24-1.29c.45-.15,1,0,.67.52-.77,1.2,0,1.92.47,2.92,1,2.08.89,4.38.76,6.64a31.55,31.55,0,0,0-.08,5.05c.19,1.83.87,3.37,2.84,4a4.92,4.92,0,0,0,5.16-1.49,4.37,4.37,0,0,0,.36-5,12.48,12.48,0,0,0-2.39-3,9.21,9.21,0,0,1-2.66-9.28,32.14,32.14,0,0,1,9-15.27,11.79,11.79,0,0,1,2.91-2c.3-.15.61-.42,1.07-.06C351.33,104.32,350.23,104.72,349.56,105.91Zm71.69-54.18c4.84,4.77,11.28,7.49,16,12.37,2.81-7.42,11.08-10.66,17.07-5.81-3.89-10.07-11.29-16-22.13-18.11,1-.36,1.19-.56.47-1.17-4.07-3.42-8.82-5.85-13.1-9.06a3.16,3.16,0,0,0,.37,1.68c.08.29.28.62-.06.82s-.6-.1-.74-.36c-.59-1-1.22-2-1.71-3.08a12.27,12.27,0,0,0-5-5.44Q395,12.88,377.25,2.74a13.35,13.35,0,0,0-2.8-1.22,5.44,5.44,0,0,0-6.55,3c.71.34,1.45-.32,2.38,0a7.66,7.66,0,0,1-2.53,1.05,7.6,7.6,0,0,0-5.66,6,21.12,21.12,0,0,1-.57,2.07c-1.38,4.24-.16,7.75,3.07,10.64,2.13,1.9,4.39,3.67,6.55,5.54,4.38,3.79,9.1,6.92,14.85,8.27a12.19,12.19,0,0,1,4.66,2.27c.19.15.47.31.51.51.16.82.13.83.67,1.09a51.61,51.61,0,0,1,10,6,60.32,60.32,0,0,1,9.6,9.23,9.7,9.7,0,0,0,4.26,3.36c.08-.76-.92-.9-.63-2,5.78,4,10,9.36,14.91,14.1-.06,0,0,0,0,0,.08-.24.16-.47.23-.72.81-3,2.38-5.42,5.48-6.49,1-.34.56-.72.13-1.14a49.59,49.59,0,0,0-5.76-4.57A44.44,44.44,0,0,1,421.25,51.73ZM336.79,87.44c0-6.16-3.26-10.1-8.63-12.58-3.76-1.73-7.55-1.51-11.49-.45a13.68,13.68,0,0,0-9.87,9c-2.67,7.26-.6,13.52,4.18,19.16,1.3,1.52,2.71,3.17,4.65,3.64,5,1.23,10,.86,13.85-2.79C334,99.16,336.86,93.92,336.79,87.44ZM455.22,66.87c-.06-1.06-.07-1.73-.15-2.39-.62-5.73-5.77-8.6-11-6.13a10.76,10.76,0,0,0-5.86,6.55,2.49,2.49,0,0,1-2,1.9,7,7,0,0,0-5.39,6.31c-.07,1,.18,1.58,1.17,1.83,1.41.36,1.6,1.06.54,2.07a4.13,4.13,0,0,1-1.27.84,5.84,5.84,0,0,0-2.7,2.36c-2.6,3.85-6.46,5.45-10.92,5.8a1.84,1.84,0,0,0-1.47.59,10.82,10.82,0,0,0-2.38,4.07c-.44,1.65-.69,3.3.33,4.88.38.59.73.84,1.48.55,5.74-2.16,11.74-3.48,17.54-5.46,5.21-1.77,10.21-4,14.35-7.69A23.53,23.53,0,0,0,455.22,66.87ZM369,37.69a18.52,18.52,0,0,0-11.54,3.56c-1.05.74-1,1.11.12,1.76a8.57,8.57,0,0,1,4.07,6.7c.31,2.87-1.4,5.09-3.92,5.26a2.55,2.55,0,0,1-2.87-2c-.11-.39.19-1.07-.51-1.09s-.86.58-1,1.05a6.06,6.06,0,0,0,1.9,6c1.31,1.22.92,2,.06,3a3.68,3.68,0,0,1-1.44,1.12c-.46.17-.54.48-.35,1a3.7,3.7,0,0,0,3.79,2.43c5-.34,9.68.41,13.82,3.44a3.76,3.76,0,0,0,3.08.55,8.43,8.43,0,0,0,4.29-2.54c5.11-5.12,6.31-11.25,4.62-18.1C381.36,42.49,375.46,37.72,369,37.69Zm-27.6,79.49c1.81-.78,3.26-1.5,4.79-2.05,5.28-1.92,10.71-3.42,16.13-4.89,14.45-3.91,29-7.33,43.42-11.44a3.62,3.62,0,0,0,2.83-4.46,3,3,0,0,0-1.92-2.4c-.55-.24-1.18-.31-1.46.37-1.21,2.9-3.52,2.84-6,2.31a14.2,14.2,0,0,0-9.92,1.51,45.3,45.3,0,0,0-8.81,6.36c-2.49,2.23-5.32,3.4-8.72,2.66a28.15,28.15,0,0,1-4-.88,4.62,4.62,0,0,0-4.61.59,10.65,10.65,0,0,1-8.17,1.76,13.93,13.93,0,0,0-5.34.17,4.07,4.07,0,0,0-2.21,1A28.76,28.76,0,0,0,341.42,117.18ZM348.8,42c-7,0-11,3-12.5,8.79-1.32,5.09,1.69,8.36,5,10.07a3.58,3.58,0,0,0,3.11.28,2.16,2.16,0,0,0,1.25-2.66c-.16-1-.64-2-1.83-1.87-1.51.18-1-.62-.67-1.21.75-1.44,2.9-1.64,4.26-.42a10.11,10.11,0,0,1,2.78,5.36c.49,2.06.66,2.19,2.66,1.37.42-.17.82-.41,1.23-.62.84-.44,1.1-.84.31-1.71-1.65-1.82-2.13-4.15-2.36-6.51a3.31,3.31,0,0,1,.84-2.57,1.94,1.94,0,0,1,2.5-.48,1.39,1.39,0,0,1,.55,2c-.51,1.15.14,1.74,1.13,2.06,1.64.54,3.38-.76,3.58-2.81a6.35,6.35,0,0,0-2.71-6.14A16.73,16.73,0,0,0,348.8,42Zm9.61,25.59c-9.2-.67-16.21,7.67-18.09,13.38-.32,1,.07,1.36.85,1.78a66.63,66.63,0,0,0,17.77,7c5.3,1.13,10.33,3.19,15.55,4.63,1,.28,1.5.12,1.74-.94a33.19,33.19,0,0,1,.92-3.24c2.46-7.57-.36-13.57-5.65-18.8a10.4,10.4,0,0,0-5.34-2.84A38.16,38.16,0,0,0,358.41,67.61Zm-44.19,63.1a54.78,54.78,0,0,0,11.87-4.84c.3-.17.67-.33.52-.81-.77-2.49-2.85-4.25-5.43-3a6.66,6.66,0,0,0-2.53,2.6C317.31,126.78,316.23,129.06,314.22,130.71Zm60.64-57.53c-.08.17-.13.23-.11.25l.73,1.16c2.72,4.2,4.29,8.67,3.19,13.77-.41,1.9-1,3.74-1.59,5.58-.1.31-.44.68,0,.93a.83.83,0,0,0,1.11-.18,8.73,8.73,0,0,0,.75-1.15A14.6,14.6,0,0,0,380.18,83,19.44,19.44,0,0,0,374.86,73.18Zm10.23-15.82c-1.36,6.47-4.46,11.72-11,14.54.59.36.83,1.44,2,.88A15.31,15.31,0,0,0,385.09,57.36ZM337.44,91.93c-2.74,8.88-7.64,15.26-17.95,15.7C326.31,110,337.9,101.65,337.44,91.93Zm-28.82,40.93c-4.42-.89-6.57.16-7.14,3.44A70.79,70.79,0,0,1,308.62,132.86Zm42.14-69.77c-1.25-.18-1.26-1.13-1.41-2a10,10,0,0,0-2.29-5.24,2,2,0,0,0-3-.31c1.81.15,3.08.7,3.75,2.13A10.17,10.17,0,0,1,349,61.92C349,63.09,349.45,63.51,350.76,63.09Zm1.09.76c-.19.07-.67,0-.6.55a4,4,0,0,0,1.49,2.72,1.06,1.06,0,0,0,1.39-.22c.41-.42-.19-.66-.38-1-.33-.51-.7-1-1-1.5C352.54,64.15,352.44,63.78,351.85,63.85Z"/><path class="f" d="M394.15,58.94c-.66-.2-1.1-.32-1.52-.47a3.7,3.7,0,0,1-1.73-5.87c2.52-3.39,7.33-4.13,11.31-1.74a14.08,14.08,0,0,1,6.17,14c-.22,1.08-.05,1.42,1.09,1.49,5.21.33,8.26,3.7,8.75,9.1a5.56,5.56,0,0,1-1.4,3.65c-3.75,5.46-14.38,8.25-20.4,5.4A7.54,7.54,0,0,1,394,72.37c.62-.69.91-1.18.33-2.08a2.66,2.66,0,0,1,.14-2.78c.4-.73.1-1-.57-1.18a6.31,6.31,0,0,0-2.29-.12,2.25,2.25,0,0,1-2.66-1.95,11.68,11.68,0,0,1-.28-2.43c-.05-2,.21-2.25,2.21-1.89A4.25,4.25,0,0,0,394.15,58.94ZM407.8,63a15.76,15.76,0,0,0-3.17-9,9.46,9.46,0,0,0-6.75-3.81c-2.89-.24-6,1.56-6.52,3.77-.19.87-.3,1.77.74,2.25a1.75,1.75,0,0,0,2.32-.58c.74-1.12,1.08-.49,1.43.21a2.55,2.55,0,0,1-.5,3.11,5.49,5.49,0,0,1-4.08,1.82c-1.89,0-2.09.24-1.75,2.09.18,1,.27,1.57,1.68,1,2.22-.84,4.42-.19,6.39,1.1a1.17,1.17,0,0,1,.63,1.29c-.15.52-.65.38-1,.41a2.06,2.06,0,0,0-1.74,1.09,1.94,1.94,0,0,0-.1,2.3c.68.87,1.32,0,1.85-.26a27.29,27.29,0,0,1,8.57-3.22,1.83,1.83,0,0,0,1.66-1.52C407.59,64.37,407.69,63.62,407.8,63Zm-.37,4.63a23.88,23.88,0,0,0-10.11,3.13,11.76,11.76,0,0,0-3.8,3.29c-1.58,2.1-1.3,4,.82,5.53a7.72,7.72,0,0,0,3,1.47,20,20,0,0,0,16.71-3.84,6.08,6.08,0,0,0,1.6-2c1.69-3.15.76-5.59-2.61-6.74A16.65,16.65,0,0,0,407.43,67.66Zm9.7,6c-2,5.11-6.15,6.7-10.42,8s-8.76,1.9-12.94-.9A6,6,0,0,0,398,84.53c5.7,1.69,15-1.45,18.47-6.27a7.18,7.18,0,0,0,.56-.91A4.76,4.76,0,0,0,417.13,73.63Zm-26.41-8c2-1,4,.73,6.28.17C394.81,64.18,392.15,64.13,390.72,65.62Z"/><path class="f" d="M311.4,111.84a16,16,0,0,1-3.6,8.63c-2.47,3.29-5.47,5.93-9.7,6.74a8.29,8.29,0,0,1-5.83-1.35,2.28,2.28,0,0,1-1.23-2.17c.39-4.19-.16-8.53,1.79-12.48s4.8-6.62,9.09-7.27C306.79,103.2,311.42,106,311.4,111.84Zm-19,7.28h-.09a34.23,34.23,0,0,0,0,3.51c.27,2.81,1.88,3.72,4.47,2.6a11.8,11.8,0,0,0,4.89-4.06,60.33,60.33,0,0,0,5.12-8.34,12.45,12.45,0,0,0,1.16-3.47,3.1,3.1,0,0,0-2.65-3.94,7.68,7.68,0,0,0-6.05.84c-4,2.55-6.91,5.75-6.78,10.87C292.51,117.79,292.44,118.45,292.4,119.12Zm6.63,6.4c6-.19,13.86-12.25,10.37-16.26C307.43,115.59,303.74,120.8,299,125.52Z"/><path class="f" d="M315.39,111.78c1.27.32,2.53.7,3.82,1,3.8.72,7.09-.12,9.6-3.27.43-.53.61-1.25,1.71-.48.83.58,2.08-.09,2.87-.91s1.7-1.9,2.57-2.84c.38-.4.82-.93,1.42-.76a6.93,6.93,0,0,0,5-.77c-1.06,1.19-2.2,2.22-3.94,1.82a1.94,1.94,0,0,0-2.22.87c-1.5,2-3.2,3.77-6.06,3.45a.94.94,0,0,0-.9.46c-2.1,2.83-5.11,3.37-8.33,3.18a12.29,12.29,0,0,1-5.65-1.32Z"/><path class="f" d="M304.27,127.21a35,35,0,0,0-6.38,4.4c-1.69,1.34-3.49,1.12-5.08-.41a8,8,0,0,0-2.48-1.48,3.33,3.33,0,0,1-2.17-3.51c.07-1.47.2-2.94.33-4.72a5.17,5.17,0,0,1,.54,3.34c-.15,2,.44,3.52,2.54,4.14a3.41,3.41,0,0,1,1.49,1,3.38,3.38,0,0,0,4.19.75,42.44,42.44,0,0,0,4.59-2.74A3.78,3.78,0,0,1,304.27,127.21Z"/><path class="f" d="M306.67,102.64a12.79,12.79,0,0,0-5.67-.32c-.95.08-1.89,0-2.41-.93a2.55,2.55,0,0,1,.2-2.62A17.86,17.86,0,0,0,301,91.54a2.94,2.94,0,0,1,1.17-2.27,5.75,5.75,0,0,0,.11,5c.43.91-.29,1.75-.92,2.45a7.07,7.07,0,0,0-1.88,3.11c-.25,1.1.16,1.7,1.32,1.63.71,0,1.42-.21,2.13-.26A3.63,3.63,0,0,1,306.67,102.64Z"/><path class="f" d="M329.8,61.38c-.29.41-.55.84-.85,1.23-1,1.32-1.52,2.64-.29,4.14a3,3,0,0,1,.39,1.91c.09,2.51,1.23,3.46,3.69,2.74s4.82-.68,7.44-1.14A2.48,2.48,0,0,1,338,71.41a35.51,35.51,0,0,0-5.72.92,3,3,0,0,1-3.83-3,4.14,4.14,0,0,0-.92-2.81,2.29,2.29,0,0,1-.06-2.6,10,10,0,0,1,2.07-2.76Z"/><path class="f" d="M388.28,76.06c.09.51-.22.69-.38.93-1.34,2-1.1,3.12,1,4.37a7.42,7.42,0,0,1,3,2.82,5.25,5.25,0,0,0,5.49,3.07,4.63,4.63,0,0,1,.91,0c.09,0,.17.1.26.16.1.45-.27.49-.54.56a6,6,0,0,1-6.45-2.65,10.55,10.55,0,0,0-3.74-3.71C385.63,80.24,385.89,77.45,388.28,76.06Z"/><path class="f" d="M371,96.72c-3.66.27-7,.36-10.05-1.73a27.48,27.48,0,0,0-9.71-4c-.45-.1-.89-.23-1.33-.36-.08,0-.13-.13-.32-.32a8.58,8.58,0,0,1,3.58.43,20.79,20.79,0,0,1,7.16,3c2.57,1.73,5.29,2.83,8.47,2.42A2.61,2.61,0,0,1,371,96.72Z"/><path class="f" d="M278.51,149.32c.1-.49.44-.57.69-.67a4.5,4.5,0,0,0,3-3.89,3.4,3.4,0,0,1,3.13-3.06c1.87-.3,3.47-.87,4-3.26.47,1.89.07,3.06-1.5,3.32-3.24.54-4.93,2.2-5.62,5.42C281.82,149.05,280.36,149.61,278.51,149.32Z"/><path class="f" d="M283.15,125.1a5.12,5.12,0,0,1-.57,4.62,7.25,7.25,0,0,0-1,6.41,1.5,1.5,0,0,1-.5,1.78c-.74-2.34-1.71-4.52-.34-6.92A15.56,15.56,0,0,0,283.15,125.1Z"/><path class="f" d="M389.48,57.23c-1.43-1.46-1.51-3.13-.46-5.09,1.48-2.76,4.46-4.44,7.29-3.83C391.69,49.59,388.26,51.59,389.48,57.23Z"/><path class="f" d="M347.13,67.77c-3.55,2.36-5.49,6-7.9,9.35C340.16,72.58,343.25,69.83,347.13,67.77Z"/><path class="f" d="M365.22,35.5c-4,.75-7.71,2-10.8,4.76C356.39,37.05,362,34.56,365.22,35.5Z"/><path class="f" d="M415.34,82.18c3.43-2.34,4.59-5.45,4.59-9.16a2.3,2.3,0,0,1,.67,2.61,43.05,43.05,0,0,1-1.7,4.43A3.48,3.48,0,0,1,415.34,82.18Z"/><path class="f" d="M385.71,49.36c-1.4-3-2.4-6.12-4.49-8.72A12.21,12.21,0,0,1,385.71,49.36Z"/><path class="f" d="M378.85,73.31c2.31-1.47,4.56-2.65,6.06-4.75C383.88,71.14,381,73.46,378.85,73.31Z"/><path class="f" d="M307.07,125.28c1.57-1.68,2.93-3.53,4.47-5.51C311.4,121.53,309.49,123.89,307.07,125.28Z"/><path class="f" d="M338.93,137.88c-2.14-.16-3-2.31-2.21-5.18C337,134.64,336.82,136.74,338.93,137.88Z"/><path class="f" d="M279.41,167.67c-1.47-.12-1.86-1.14-1.94-2.41C278.08,166.09,278.74,166.87,279.41,167.67Z"/><path class="f" d="M415.39,48,404.6,39.49l.26-.34c3.7,2.69,7.73,4.94,10.75,8.5Z"/><path class="f" d="M375.38,30.29a19.15,19.15,0,0,1-8-6.19C369.75,26.52,372.68,28.24,375.38,30.29Z"/><path class="f" d="M379.68,9l-4.12-2.47A8.2,8.2,0,0,1,379.68,9Z"/><path class="f" d="M307.6,91.07a12.59,12.59,0,0,1,1.1-8.84A45.39,45.39,0,0,0,307.6,91.07Z"/><path class="f" d="M332.16,94.73c-.13,1-.37,2.17-1.71,2.29-1.08.1-1.36-.8-1.32-1.66.06-1.1.32-2.24,1.69-2.34C331.91,92.93,332.13,93.78,332.16,94.73Zm-2.53.53c.16.38,0,1.2.73,1.2,1,0,1.27-.92,1.35-1.73.06-.54-.09-1.32-.77-1.25S329.71,94.3,329.63,95.26Z"/><path class="f" d="M325,94.15c-.09.78-.3,1.65-1.17,1.51-1.19-.19-1.35-1.39-1.6-2.36-.16-.65.29-1,.87-.93A1.9,1.9,0,0,1,325,94.15Zm-1.78-1.27c-.22.08-.59.13-.47.54.19.66.31,1.48,1.07,1.69.49.14.62-.43.62-.83A1.34,1.34,0,0,0,323.23,92.88Z"/><path class="f" d="M324.53,76.89c-.1.85-.23,1.74-1.13,1.62-1.21-.16-1.36-1.35-1.58-2.32-.14-.6.15-1,.81-1A1.91,1.91,0,0,1,324.53,76.89ZM323.4,78a.8.8,0,0,0,.6-.94,1.33,1.33,0,0,0-1.23-1.3.41.41,0,0,0-.46.58C322.54,77,322.6,77.73,323.4,78Z"/><path class="f" d="M329.05,88.58a.77.77,0,0,1-.95.87c-.6-.07-1.27-.18-1.33-1s.46-.93,1.08-1S328.94,87.9,329.05,88.58Z"/><path class="f" d="M314,81.74c-.54-.14-1.32-.18-1.3-1.07,0-.69.6-.85,1.21-.85a1,1,0,0,1,1.07,1C315,81.46,314.73,81.77,314,81.74Z"/><path class="f" d="M309.4,90.34a1.2,1.2,0,0,1-.31-1.74,1,1,0,0,1,1.22-.35,1.47,1.47,0,0,1,.88,1.61,1,1,0,0,1-.63,1,.86.86,0,0,1-1.22-.53.73.73,0,0,1,.3,0c.47.24.91.33,1-.34s0-1.11-.62-1.2-.66.5-.71,1A2.14,2.14,0,0,0,309.4,90.34Z"/><path class="f" d="M317.61,88a.77.77,0,0,1,.84.82c0,.59-.17,1.22-.78,1.3s-.78-.51-.84-1A.85.85,0,0,1,317.61,88Z"/><path class="f" d="M323.69,102.93c-.13.58-.29,1.26-1,1.13-1.08-.21-1-1.3-1.18-2.08-.1-.4.16-1,.61-.89C323.12,101.24,323.4,102.12,323.69,102.93Zm-.46-.08c-.14-.49-.28-1.09-.93-1.17-.36-.05-.47.39-.39.67.14.5.16,1.19.87,1.25C323.11,103.62,323.22,103.23,323.23,102.85Z"/><path class="f" d="M327.54,100.19c-.15.5-.22,1.16-1,1.1s-.67-.71-.71-1.19a.77.77,0,0,1,.77-.93C327.3,99.15,327.51,99.57,327.54,100.19Z"/><path class="f" d="M315.6,101.15a.91.91,0,0,1,.87,1c0,.57-.25,1-.83,1.08s-.78-.51-.83-1A.9.9,0,0,1,315.6,101.15Z"/><path class="f" d="M323,82.49c-.74,0-1.37.07-1.29,1s.7,1,1.59.8c-.6.72-1.14.77-1.67.26a1.42,1.42,0,0,1-.35-1.79C321.69,82,322.33,82.25,323,82.49Z"/><path class="f" d="M316.13,95.35c-.81-.15-1.17.31-1.09,1s.59,1.11,1.39.82c-.33.82-.92.71-1.43.28a1.42,1.42,0,0,1-.31-1.9C315,95,315.54,94.62,316.13,95.35Z"/><path class="f" d="M445.29,82.12C451.18,77,455,71,453.49,62.7a5,5,0,0,1,.82,3.1C454.25,72.85,450.75,78,445.29,82.12Z"/><path class="f" d="M374.8,59.33c0-1.5.81-2.69,1.77-2.62s1.26.7,1.29,1.56c0,1.28-.76,2.49-1.71,2.5S374.87,60,374.8,59.33Zm2.63-.79c0-.58-.09-1.31-.76-1.3-.87,0-1.29.74-1.31,1.58,0,.6,0,1.42.77,1.38S377.24,59.29,377.43,58.54Z"/><path class="f" d="M358,57.09a.76.76,0,0,1-1,.77c-.6-.13-1.28-.26-1.29-1s.62-.87,1.19-.89C357.66,55.91,358,56.33,358,57.09Z"/><path class="f" d="M368,57c-.1-.66.22-1,.85-.94a1.78,1.78,0,0,1,1.86,1.83,1.38,1.38,0,0,1-1,1.54C369,59.63,368,58.15,368,57Zm1.12-.45c-.38,0-.71.07-.63.47.15.69.28,1.5,1,1.76.49.17.67-.38.68-.79A1.41,1.41,0,0,0,369.07,56.58Z"/><path class="f" d="M374.76,52.3c-.05.75-.49.9-1.06.85s-1.23-.26-1.25-1,.58-.87,1.16-.87A1.06,1.06,0,0,1,374.76,52.3Z"/><path class="f" d="M381.55,53.84a.82.82,0,0,1,.9.86c0,.62-.22,1.2-.85,1.25s-.82-.57-.89-1.06A.91.91,0,0,1,381.55,53.84Z"/><path class="f" d="M368.87,46.69c.94.51.52,1.07,0,1.54a1.07,1.07,0,0,1-1.72-.1,1.33,1.33,0,0,1,.14-2c.78-.6,1.32-.21,1.61.62-.36-.33-.71-.83-1.25-.32a1,1,0,0,0-.17,1.24c.22.38.55.63,1,.42C369.1,47.77,369.15,47.27,368.87,46.69Z"/><path class="f" d="M365.44,65.1c-.13.5-.24,1.07-.88,1.06s-.88-.53-.88-1.15.3-.81.84-.83S365.4,64.53,365.44,65.1Z"/><path class="f" d="M373.53,41.2c.89-.06,1.2.23,1.21.76s-.19,1.15-.86,1.2-.86-.48-.9-1S373.26,41.23,373.53,41.2Z"/><path class="f" d="M362.2,59.71c.3.53.68,1.08-.1,1.53a1.07,1.07,0,0,1-1.51-.17,1.4,1.4,0,0,1-.08-1.94c.55-.56,1.2-.38,1.67.26-.47-.23-1-.42-1.34.11a.89.89,0,0,0,.09,1.12c.22.3.53.53.9.31S362.63,60.28,362.2,59.71Z"/><path class="f" d="M378,45.77c-.67,0-1.38,0-1.32.92.06,1.11.87,1,1.63.9-.49.58-1.09.82-1.7.24a1.38,1.38,0,0,1-.28-1.92C376.77,45.23,377.37,45.24,378,45.77Z"/><path class="f" d="M372.14,65a.78.78,0,0,1,1.3-.19.86.86,0,0,1,.22,1c-.2.56-.51,1-1.46.66.53-.32,1.2-.3,1.09-1S372.48,65.28,372.14,65Z"/><path class="f" d="M357.37,69.94a26.06,26.06,0,0,1,11,2.36,11.94,11.94,0,0,1,7.49,11.19,46.45,46.45,0,0,1-.69,7.63c-.11.81-.5,1.23-1.37.8-.46-.22-.95-.37-1.41-.61-2.13-1.09-4.18-2.34-6.41-3.26-1.78-.73-1.84-1.61-.37-2.85.85-.72.61-1.25-.23-1.6-3-1.27-6-2.69-9.29-3a8.71,8.71,0,0,0-1.84,0c-.87.11-1.13.62-.73,1.42a9.38,9.38,0,0,0,.64,1c1,1.54.78,2.11-1,2.13a10.18,10.18,0,0,1-7.95-3.68,1.72,1.72,0,0,1-.3-1.44c.3-5.11,3.57-8.75,8.83-9.75A16,16,0,0,1,357.37,69.94Zm-4.31,14c.05-.46-.38-.55-.62-.77-1.44-1.29-1.31-2.33.43-3.14a7.12,7.12,0,0,1,4.21-.33,37.35,37.35,0,0,1,9.05,3.25c1.7.76,1.79,1.91.32,3.08-.74.58-.68.9.15,1.25a59.36,59.36,0,0,1,6.4,3.28c.72.41,1.07.38,1.17-.55.14-1.32.46-2.62.59-3.94.63-6.45-1.9-11.09-7.44-13.31a24.6,24.6,0,0,0-12.92-1.62c-4.91.73-8.24,4-8.83,8.65a1.7,1.7,0,0,0,.12,1.32C346.81,82.76,350.89,84.34,353.06,83.92Z"/><path class="f" d="M403,79.26c-1.78-.05-3.17-.23-3.79-1.64a3.19,3.19,0,0,1,1-3.76c3-2.78,5.63-3.85,8.81-2.33,1.86.89,2.21,2.28.84,3.81A13.19,13.19,0,0,1,403,79.26Zm3.12-5.5c-2.05.35-4,.85-5.42,2.36-.38.4-.82.84-.53,1.47a1.59,1.59,0,0,0,1.37.85,5,5,0,0,0,2.24-.27,24.78,24.78,0,0,0,3.86-1.83c.45-.24,1.17-.39,1.06-1.11s-.63-.91-1.17-1.11A13.92,13.92,0,0,0,406.1,73.76Zm3.59.53c.29-1.44-.62-2-1.68-2.31a6.67,6.67,0,0,0-7.46,3C403.58,73.43,406.51,72.25,409.69,74.29Z"/><path class="f" d="M393.88,75.78c-.07,2.69,2.08,3.33,4.09,4.27C395.22,80,393.42,78,393.88,75.78Z"/><path class="f" d="M295,118.54c.37-2.13.08-4.58,1.29-6.8a5,5,0,0,1,2.9-2.54,3.6,3.6,0,0,1,3.75.52c1.11,1,.9,2.3.49,3.55a13.65,13.65,0,0,1-5.57,7.07,1.81,1.81,0,0,1-2.14.28A2,2,0,0,1,295,118.54Zm7.52-5.57c0-.81-.51-.82-1-.82a4,4,0,0,0-3.51,2.77c-.38,1.1-.33,2.33-.94,3.38-.2.34-.46.8,0,1.09s.79-.06,1.11-.31a14.84,14.84,0,0,0,3.89-4.87A10.16,10.16,0,0,0,302.54,113Zm-6.39,5.43a4.08,4.08,0,0,0,.94-2.61c.31-2.59,2-3.75,4.28-4.37.36-.1,1.08.25,1-.5,0-.56-.61-.78-1.11-.93-1.28-.38-3,.53-3.92,2.08A11,11,0,0,0,296.15,118.4Z"/><path class="f" d="M350.43,78.7A2.52,2.52,0,0,1,348.67,77c-.14-.45-.28-.91.22-1.22a1.07,1.07,0,0,1,1.27.12,4.81,4.81,0,0,1,1.5,3.07c0,.2,0,.45-.23.47-.53,0-.68-.55-1.06-.77,1.19-.59.1-1.21,0-1.77s-.47-1-1.11-.7c-.43.18-.27.6-.15.93A3.46,3.46,0,0,0,350.43,78.7Z"/><path class="f" d="M361.91,78.62V76.5l.32,1.28a3,3,0,0,0,1.35-1.51c.26-.46.71-1,.16-1.51s-1.05-.05-1.65.72c.32-1.27.87-1.47,1.61-1.19s.75.9.53,1.53A4.78,4.78,0,0,1,361.91,78.62Z"/><path class="f" d="M355.74,78c-.11-.81-.7-1.17.17-1.62.42-.22.57-1,.77-1.61a1.06,1.06,0,0,0-.27-1.25c-.48-.39-.75.17-1.19.49.19-.89.62-1.11,1.17-.94a1.17,1.17,0,0,1,.79,1.33A9.71,9.71,0,0,1,355.74,78Z"/><path class="f" d="M367.54,80.38c.72-.18,1.45-.33,2.15-.57.42-.14.95-.39.67-1s-.81-.53-1.3-.24c-.29.17-.56.4-1.08.79A2.19,2.19,0,0,1,369.42,78a1.14,1.14,0,0,1,1.43.59c.34.67,0,1.08-.58,1.36A3.08,3.08,0,0,1,367.54,80.38Z"/></svg>