<svg xmlns="http://www.w3.org/2000/svg" viewBox="0 0 377 377"><defs><style>.a{fill:#fff;}</style></defs><circle class="a" cx="188.5" cy="188.5" r="188.5"/><path d="M146.72,254.21c.14-1.84.27-3.68.43-5.53a16.75,16.75,0,0,0-.33-5.09c-.12-.57-.37-1.16-1-1.3-.75-.16-.86.56-1.12,1a18.67,18.67,0,0,1-1.28,2.21c-1.53,2-3.43,2.34-5.3.59-1.22-1.13-2-.91-3.28-.21-7.24,4.06-15.2,6.34-22.91,9.23a89.1,89.1,0,0,0-10.9,4.85,4.92,4.92,0,0,0-2.35,2.61c-.67,1.64-1.43,3.25-2.25,4.83a15.72,15.72,0,0,1-7.53,7.24,17.85,17.85,0,0,0-10,21.1,18.9,18.9,0,0,1,.55,3.58c.21,4.52-2,7.25-6.47,8.08a6.21,6.21,0,0,1-6.94-3c-1.93-2.95-2.38-6.35-2.89-9.72-.12-.76-.07-1.56-.74-2.15a5.42,5.42,0,0,1-1.27-6.67c1.9-4.12,1.46-8.08.26-12.17-2.41-8.14-1-15.89,2.49-23.41,3.32-7.15,6.61-14.32,9.94-21.47,2.94-6.31,7.47-11.41,12.56-16a18.16,18.16,0,0,0,4.85-7.62q1.58-4.41,3.26-8.79a15.14,15.14,0,0,1,5.92-7.37c3.77-2.47,6.43-6,9.24-9.39,6.83-8.14,12.91-16.87,21.74-23.24,5.39-3.89,10-8.81,15-13.25a3.12,3.12,0,0,0,1-2,16.54,16.54,0,0,1,10.87-13.39,6.33,6.33,0,0,0,3.08-2.41c2-2.92,4.82-5,7.58-7.13A43.9,43.9,0,0,0,179.77,106c2.08-3.38,2.18-7,2.08-10.63-.17-6.58,1.45-12.65,6-17.4,2.39-2.46,5.26-4.53,7.85-6.85,2-1.84,4.5-1.95,7-1.31a14.63,14.63,0,0,1,4.32,1.79c10.64,6.87,22.13,12.26,32.77,19.14,5.31,3.44,10.79,6.59,16.16,9.94,3,1.84,6,3.63,7.66,6.91a4.75,4.75,0,0,0,1.57,1.4c7.49,5.42,15.6,9.94,22.84,15.71a4.24,4.24,0,0,0,1.55.68c13.18,3.28,21.16,12.16,25.3,24.54,5.29,15.84-1.33,31.91-16.19,40.74-7.53,4.47-15.79,7.08-24.1,9.59-4.62,1.39-9.24,2.8-13.87,4.18-1,.31-1.69.58-1.45,2,.56,3.3-.64,5.49-3.06,6.25-2.19.68-5.58-.86-6.65-3.47-.74-1.78-1.53-1.66-3-1.13-5.11,1.84-10.55,2.29-15.76,3.72-9,2.47-17.86,5.68-27,7.72-13.46,3-26.65,7-39.79,11.16a38.74,38.74,0,0,0-4.72,1.95c-2.11,1-4.26,1.78-4.7,4.66-.51,3.33-.73,6.49,1.34,9.41,1.93,2.73,4.45,5,6,8a7,7,0,0,1-3,9.83,8.12,8.12,0,0,1-12.14-6.47c-.11-1.27,0-2.55,0-3.83Zm21.07-37.56a27.23,27.23,0,0,1,8.53-.39c3.92.35,6.82-1.88,10.24-3.38-1.39-1.09-3.05-.85-4.32-1.9a4.92,4.92,0,0,1,2.91.2c3.3.87,6.58,1.8,9.87,2.7,5.35,1.47,10.23,1,14.39-3.17a59.94,59.94,0,0,1,5.45-4.44c6.86-5.48,14.42-8.46,23.37-6.79a4.4,4.4,0,0,0,5.09-2.62c.67-1.33,1.25-2.75,2.64-3.52.47-.26,1-.82,1.54-.34s-.15,1-.45,1.42c-.76,1-.72,1.44.66,1.83,3.56,1,4.69,3.18,3.76,6.82-.22.9-.55,1.78-.68,2.68a4.75,4.75,0,0,0,2.42,4.86,3.28,3.28,0,0,0,3.64,0c1.17-.71,1.18-1.89,1-3a11.62,11.62,0,0,0-1.62-4.6c-3.83-5.76,1-15.37,6.79-18,.57-.25,1.25-.71,1.78-.17s-.69.86-.21,1.6c3.65-.6,7.36-1.48,9.83-4.41,2-2.36,3.26-5.29,6.88-6.36a12.64,12.64,0,0,1-4.4-4.62,19.07,19.07,0,0,0-2.75-3.52q-5.47-5.38-10.93-10.8a2.48,2.48,0,0,0-2.23-.91,6.28,6.28,0,0,1-6.05-2.8,106.07,106.07,0,0,0-13.22-13.59c-9.11-8.17-20.72-12-31.13-17.92A111.3,111.3,0,0,1,185.84,103c-.87-.88-1.6-1.89-2.56-3-.28,2.37,1.83,3.47,2.24,5.47-.55-.11-.9-.08-1.07-.24-1.58-1.49-2.06-.5-2.61,1a20.86,20.86,0,0,1-4.69,7.07A154.14,154.14,0,0,1,164.83,125c-.44.36-1.16.57-1.08,1.48a23,23,0,0,1,9.53.6,4.92,4.92,0,0,0,5.08-1.26c9.67-8.1,25.31-6.82,32.64,2.55a38.62,38.62,0,0,1,6.64,13c2,6.8,1.15,13.31-1.37,19.81-1.93,5-5.65,7.88-10.3,9.9-1.51.65-1,1.33-.24,2.22a30.28,30.28,0,0,1,6.5,13.51c.83,4.21.71,8.36-1.6,12.18s-3.31,4.36-7.45,3c-9-3-18.2-5.52-27.44-7.84a67.6,67.6,0,0,1-20.44-8.88,2.61,2.61,0,0,1-1.31-3.35,28.76,28.76,0,0,1,2.8-7.12,26.09,26.09,0,0,1,12.28-10.5c.59-.26,1.8-.36,1.53-1.16-.55-1.65-1.12-4-2.36-4.57-2.34-1-2.36-2.73-2.73-4.56-.35-1.68-.59-3.42-2.22-5.08l.21,1.71c.38,3.84-1.27,5.49-5.13,5-4.93-.65-8-3.63-9.88-8.08-.36-.88-.64-1.8-1.07-3-3.81,5.22-8.51,9-13.32,12.63a112.14,112.14,0,0,0-12.47,10.34,18.72,18.72,0,0,0-3.64,4.67c2.73-.67,5.18-1.3,7.65-1.87,8.1-1.87,15,.21,20.23,6.73,6.08,7.59,7.63,16.38,5.72,25.77-3.12,15.28-20.18,23-33.38,15.15a27.23,27.23,0,0,1-12.66-26.79c.26-1.68.64-3.35,1.06-5.54a26,26,0,0,1-4.89,4.21,15.91,15.91,0,0,0-5.82,7.94c-1.41,4-3,8-4.63,11.92a39.38,39.38,0,0,1-7,11.66c-.45.5-.8,1.33-1.91,1.16.84-2.6,2.84-4.43,3.77-7.45a43.67,43.67,0,0,0-9.31,12c-3.69,7.45-7.1,15-10.94,22.42-4.75,9.13-3.93,18.45-1.58,27.92.72-.11.45-1.33,1.47-1.27-.06,2.63-1.33,4.82-2.18,7.13-1.84,5-1.4,6.61,2.77,9.92.9.7,1.83,1.4,1.38,2.78-1.06.21-1.5-1.12-2.51-.95a17.41,17.41,0,0,0,1,6.86,6.84,6.84,0,0,0,7.87,3.58c3-.8,4.34-3,3.87-6.61a30,30,0,0,0-1-3.93c-.65-2.32-1.7-4.53-2.09-6.93a8,8,0,0,1,2.1-7.05c-.06,2.25-1.71,4.28-.89,6.7.81-.28.62-.88.75-1.31,1.57-5.18,4.45-9.4,9.35-11.9a18.74,18.74,0,0,0,8.21-8.08c2.17-4,3.65-8.43,7.08-12.17-2.91.25-4.41,2.06-6.07,3.59a8.42,8.42,0,0,1,6.72-5.22c2.58-.48,5.2-.79,7.81-1.11,5.71-.71,10-3.33,12.45-8.74a16.6,16.6,0,0,1,2.56-4.17c3.58-4.16,8.86-3.43,11.26,1.5a23.61,23.61,0,0,0,2.42,4c1.49,1.95,2.8,1.72,3.7-.54.64-1.58,1.17-3.2,1.82-4.77a2.91,2.91,0,0,1,1.73-1.8c.62-.2,1.4,0,.93.72-1.07,1.67,0,2.67.65,4.06,1.36,2.89,1.24,6.1,1.06,9.23a44.63,44.63,0,0,0-.12,7c.27,2.55,1.21,4.69,4,5.5a6.81,6.81,0,0,0,7.16-2.07c1.77-2.2,1.73-4.58.51-7a16.61,16.61,0,0,0-3.33-4.14c-3.6-3.63-5-8-3.69-12.91a44.88,44.88,0,0,1,12.46-21.24,16.27,16.27,0,0,1,4-2.75c.41-.21.84-.58,1.47-.07C170.25,214.45,168.71,215,167.79,216.65Zm99.67-75.32c6.73,6.63,15.68,10.41,22.28,17.2,3.91-10.31,15.41-14.83,23.74-8.08-5.42-14-15.7-22.22-30.77-25.17,1.33-.51,1.65-.79.65-1.63-5.66-4.76-12.25-8.14-18.21-12.61a4.42,4.42,0,0,0,.51,2.34c.12.41.39.87-.08,1.14s-.83-.14-1-.49c-.82-1.41-1.69-2.81-2.38-4.28a17,17,0,0,0-6.9-7.57q-24.27-14.87-49-29a18.29,18.29,0,0,0-3.9-1.7,7.55,7.55,0,0,0-9.09,4.22c1,.46,2-.45,3.3.07a10.4,10.4,0,0,1-3.51,1.45,10.62,10.62,0,0,0-7.88,8.4,28.32,28.32,0,0,1-.79,2.87c-1.91,5.9-.22,10.79,4.27,14.8,3,2.65,6.1,5.11,9.11,7.71,6.09,5.26,12.65,9.61,20.64,11.49a16.86,16.86,0,0,1,6.48,3.15c.27.21.66.44.72.72.21,1.13.17,1.15.92,1.51a72.14,72.14,0,0,1,13.88,8.28A84.41,84.41,0,0,1,253.78,149a13.35,13.35,0,0,0,5.92,4.67c.11-1.05-1.28-1.26-.88-2.73,8,5.56,14,13,20.74,19.61-.09.05,0,0,0,0,.11-.33.23-.66.32-1,1.12-4.2,3.31-7.54,7.62-9,1.38-.48.78-1,.18-1.59a68.92,68.92,0,0,0-8-6.35A61.57,61.57,0,0,1,267.46,141.33ZM150,191c0-8.56-4.53-14-12-17.48-5.23-2.41-10.5-2.11-16-.63a19,19,0,0,0-13.71,12.49c-3.72,10.1-.84,18.81,5.82,26.65,1.8,2.11,3.76,4.4,6.46,5.06,6.94,1.71,13.84,1.19,19.24-3.89C146.15,207.27,150.13,200,150,191Zm164.65-28.6c-.09-1.47-.1-2.4-.2-3.31-.87-8-8-12-15.27-8.53a15,15,0,0,0-8.14,9.11,3.47,3.47,0,0,1-2.84,2.64,9.78,9.78,0,0,0-7.5,8.78c-.09,1.31.26,2.19,1.64,2.54,1.95.5,2.21,1.47.75,2.88a5.9,5.9,0,0,1-1.77,1.16,8.12,8.12,0,0,0-3.76,3.29c-3.62,5.34-9,7.57-15.19,8.06a2.56,2.56,0,0,0-2,.82,15.13,15.13,0,0,0-3.3,5.66c-.61,2.28-1,4.59.45,6.78.54.82,1,1.17,2.07.77,8-3,16.32-4.85,24.38-7.59,7.24-2.47,14.19-5.49,20-10.69A32.73,32.73,0,0,0,314.68,162.37ZM194.84,121.81a25.66,25.66,0,0,0-16,5c-1.46,1-1.32,1.54.17,2.45a11.88,11.88,0,0,1,5.65,9.32c.43,4-1.94,7.06-5.44,7.3a3.53,3.53,0,0,1-4-2.74c-.15-.54.27-1.48-.71-1.51s-1.19.8-1.35,1.46a8.4,8.4,0,0,0,2.65,8.33c1.81,1.71,1.28,2.77.07,4.2a5,5,0,0,1-2,1.55c-.64.24-.75.67-.48,1.36a5.12,5.12,0,0,0,5.26,3.37c6.92-.48,13.46.57,19.22,4.79a5.19,5.19,0,0,0,4.28.75,11.74,11.74,0,0,0,6-3.52c7.1-7.12,8.77-15.65,6.43-25.16C212,128.48,203.79,121.85,194.84,121.81ZM156.47,232.33c2.51-1.09,4.54-2.09,6.65-2.86,7.36-2.66,14.9-4.76,22.43-6.79,20.09-5.44,40.36-10.2,60.38-15.91a5,5,0,0,0,3.93-6.21,4.21,4.21,0,0,0-2.68-3.33c-.76-.33-1.63-.42-2,.51-1.68,4-4.9,3.95-8.38,3.22a19.68,19.68,0,0,0-13.8,2.1,62.53,62.53,0,0,0-12.24,8.84c-3.48,3.1-7.4,4.73-12.14,3.7a38.61,38.61,0,0,1-5.61-1.23,6.39,6.39,0,0,0-6.4.83,14.9,14.9,0,0,1-11.36,2.45,19.52,19.52,0,0,0-7.42.22,5.67,5.67,0,0,0-3.08,1.35A40.12,40.12,0,0,0,156.47,232.33Zm10.26-104.51c-9.71,0-15.32,4.25-17.38,12.23-1.83,7.08,2.35,11.62,6.92,14a5,5,0,0,0,4.32.39c1.71-.71,2-2.13,1.74-3.7s-.9-2.79-2.54-2.59c-2.11.25-1.38-.87-.95-1.69,1.06-2,4-2.29,5.92-.59,2.21,2,3.2,4.68,3.87,7.46s.92,3,3.7,1.91c.59-.24,1.14-.58,1.71-.87,1.17-.61,1.53-1.16.43-2.38-2.29-2.53-2.95-5.77-3.27-9.05a4.58,4.58,0,0,1,1.16-3.57,2.69,2.69,0,0,1,3.47-.68,1.93,1.93,0,0,1,.77,2.76c-.7,1.6.2,2.42,1.57,2.87,2.29.75,4.7-1,5-3.91a8.81,8.81,0,0,0-3.77-8.53A23.33,23.33,0,0,0,166.73,127.82Zm13.36,35.59c-12.79-.93-22.54,10.65-25.15,18.6-.44,1.34.1,1.89,1.18,2.47,7.84,4.25,15.93,7.79,24.7,9.66,7.37,1.57,14.37,4.43,21.62,6.44,1.4.39,2.1.17,2.42-1.31s.8-3,1.29-4.5c3.41-10.53-.5-18.86-7.86-26.13a14.44,14.44,0,0,0-7.43-4A53.44,53.44,0,0,0,180.09,163.41Zm-61.43,87.73a75.65,75.65,0,0,0,16.5-6.74c.41-.23.93-.46.72-1.12-1.07-3.47-4-5.91-7.55-4.13a9.23,9.23,0,0,0-3.51,3.61C123,245.67,121.44,248.83,118.66,251.14Zm84.3-80c-.11.23-.17.32-.15.35.33.54.67,1.07,1,1.61,3.78,5.84,6,12,4.43,19.14A80.08,80.08,0,0,1,206,200c-.14.42-.61.93.06,1.29a1.15,1.15,0,0,0,1.54-.25,10.5,10.5,0,0,0,1.05-1.6,20.27,20.27,0,0,0,1.67-14.67A27.13,27.13,0,0,0,203,171.15Zm14.22-22c-1.89,9-6.2,16.31-15.23,20.21.81.52,1.15,2,2.83,1.24C213.19,166.67,218.25,157.83,217.18,149.15Zm-66.24,48.07c-3.81,12.34-10.63,21.21-25,21.83C135.46,222.37,151.58,210.73,150.94,197.22Zm-40.07,56.91c-6.15-1.24-9.13.21-9.93,4.77A99.18,99.18,0,0,1,110.87,254.13Zm58.58-97c-1.74-.24-1.75-1.57-2-2.74a13.9,13.9,0,0,0-3.17-7.28c-1-1.14-2.25-1.8-4.19-.43,2.52.21,4.28,1,5.21,3A14.38,14.38,0,0,1,167,155.5C167,157.12,167.64,157.7,169.45,157.12Zm1.52,1.06c-.27.1-.93,0-.83.76a5.65,5.65,0,0,0,2.06,3.79,1.49,1.49,0,0,0,1.94-.31c.57-.59-.27-.91-.53-1.33-.46-.7-1-1.37-1.42-2.08C171.93,158.59,171.8,158.08,171,158.18Z"/><path d="M229.78,151.36c-.92-.29-1.52-.45-2.11-.67a5.13,5.13,0,0,1-2.41-8.15c3.51-4.71,10.2-5.74,15.72-2.43,6.22,3.74,10.09,12.41,8.59,19.54-.32,1.5-.08,2,1.51,2.08,7.25.46,11.48,5.14,12.16,12.65.18,2-.9,3.57-1.94,5.07-5.22,7.59-20,11.47-28.37,7.51A10.5,10.5,0,0,1,229.51,170c.87-1,1.26-1.65.47-2.89a3.71,3.71,0,0,1,.19-3.87c.55-1,.14-1.4-.8-1.65a8.9,8.9,0,0,0-3.17-.16,3.14,3.14,0,0,1-3.71-2.71,17.42,17.42,0,0,1-.39-3.38c-.07-2.85.29-3.13,3.07-2.63C226.59,153,227.88,152.64,229.78,151.36Zm19,5.68c-.36-4.74-1.57-9-4.41-12.5a13.18,13.18,0,0,0-9.38-5.3c-4-.33-8.38,2.17-9.07,5.25-.26,1.2-.41,2.46,1,3.12a2.43,2.43,0,0,0,3.22-.8c1-1.56,1.51-.69,2,.29a3.57,3.57,0,0,1-.7,4.32,7.64,7.64,0,0,1-5.68,2.53c-2.63,0-2.91.33-2.43,2.9.25,1.33.38,2.2,2.34,1.45,3.08-1.18,6.15-.27,8.88,1.52a1.62,1.62,0,0,1,.88,1.79c-.2.73-.91.53-1.45.57a2.91,2.91,0,0,0-2.42,1.51c-.6,1-.94,2.17-.14,3.2.95,1.22,1.84.06,2.58-.36a37.83,37.83,0,0,1,11.91-4.47,2.53,2.53,0,0,0,2.3-2.12C248.46,158.91,248.61,157.85,248.76,157Zm-.52,6.44a33.21,33.21,0,0,0-14.06,4.34,16.53,16.53,0,0,0-5.27,4.58c-2.2,2.93-1.81,5.56,1.14,7.69a10.78,10.78,0,0,0,4.17,2,27.89,27.89,0,0,0,23.23-5.34,8.51,8.51,0,0,0,2.22-2.84c2.35-4.39,1.06-7.78-3.62-9.37A22.73,22.73,0,0,0,248.24,163.48Zm13.49,8.29c-2.75,7.11-8.56,9.32-14.48,11.14-6.07,1.87-12.19,2.64-18-1.25a8.31,8.31,0,0,0,5.93,5.26c7.92,2.36,20.8-2,25.68-8.71a9.2,9.2,0,0,0,.78-1.27C262.39,175.49,262.36,174,261.73,171.77ZM225,160.65c2.83-1.32,5.58,1,8.75.23C230.69,158.64,227,158.56,225,160.65Z"/><path d="M114.74,224.89c-.27,4.42-2.28,8.4-5,12-3.45,4.57-7.61,8.24-13.49,9.36-3,.57-5.61-.43-8.11-1.87a3.19,3.19,0,0,1-1.71-3c.54-5.82-.22-11.86,2.49-17.35,2.63-5.31,6.68-9.2,12.63-10.1C108.33,212.89,114.76,216.73,114.74,224.89ZM88.32,235h-.13c0,1.62-.13,3.27,0,4.88.38,3.91,2.62,5.18,6.22,3.61a16.33,16.33,0,0,0,6.8-5.64,82.83,82.83,0,0,0,7.11-11.6,17.11,17.11,0,0,0,1.61-4.82c.46-3-.75-4.82-3.68-5.48a10.71,10.71,0,0,0-8.42,1.17c-5.5,3.54-9.6,8-9.41,15.11C88.47,233.17,88.37,234.09,88.32,235Zm9.21,8.89c8.41-.26,19.27-17,14.43-22.6C109.22,230.11,104.09,237.35,97.53,243.91Z"/><path d="M120.28,224.81c1.77.45,3.53,1,5.31,1.32,5.29,1,9.87-.17,13.35-4.53.6-.75.85-1.75,2.37-.68,1.16.81,2.9-.13,4-1.26s2.36-2.65,3.57-3.95c.53-.56,1.14-1.3,2-1.06,2.49.7,4.7,0,6.93-1.08-1.48,1.67-3.06,3.1-5.48,2.55a2.67,2.67,0,0,0-3.09,1.21c-2.08,2.82-4.45,5.24-8.42,4.78a1.31,1.31,0,0,0-1.25.65c-2.92,3.93-7.11,4.69-11.59,4.42-2.7-.16-5.44-.43-7.85-1.84Z"/><path d="M104.83,246.27A48,48,0,0,0,96,252.39c-2.35,1.86-4.84,1.55-7.06-.58a11.11,11.11,0,0,0-3.45-2.05,4.66,4.66,0,0,1-3-4.89c.11-2,.28-4.08.46-6.55a7.13,7.13,0,0,1,.76,4.64c-.21,2.8.61,4.89,3.52,5.75a4.67,4.67,0,0,1,2.08,1.43c1.67,1.85,3.64,2,5.82,1s4.25-2.55,6.39-3.8A5.19,5.19,0,0,1,104.83,246.27Z"/><path d="M108.16,212.11c-3-1-5.42-.65-7.89-.45-1.32.11-2.62,0-3.35-1.3a3.59,3.59,0,0,1,.28-3.64,24.59,24.59,0,0,0,3.1-10,4.08,4.08,0,0,1,1.64-3.17,8,8,0,0,0,.14,6.91c.6,1.26-.4,2.43-1.27,3.41a9.82,9.82,0,0,0-2.63,4.31c-.34,1.53.23,2.37,1.85,2.27,1-.06,2-.29,3-.36C104.76,209.92,106.53,209.91,108.16,212.11Z"/><path d="M140.31,154.75c-.39.57-.75,1.16-1.18,1.7-1.44,1.83-2.11,3.68-.4,5.76a4.17,4.17,0,0,1,.55,2.66c.12,3.49,1.7,4.81,5.13,3.81s6.69-1,10.34-1.59a3.44,3.44,0,0,1-3.07,1.59,50.61,50.61,0,0,0-8,1.29c-3,.55-5.15-1.1-5.32-4.19a5.83,5.83,0,0,0-1.28-3.91c-1-1.06-.62-2.4-.09-3.61a14.07,14.07,0,0,1,2.88-3.84Z"/><path d="M221.62,175.15c.12.72-.3,1-.53,1.3-1.86,2.73-1.53,4.33,1.39,6.07a10.32,10.32,0,0,1,4.1,3.92,7.29,7.29,0,0,0,7.63,4.27,6.15,6.15,0,0,1,1.28.07c.11,0,.22.14.35.22.14.62-.38.68-.74.78-3.25.84-7.41-.74-9-3.68a14.5,14.5,0,0,0-5.2-5.15C217.94,181,218.3,177.08,221.62,175.15Z"/><path d="M197.61,203.87c-5.08.38-9.73.5-14-2.39a38.05,38.05,0,0,0-13.49-5.55c-.62-.13-1.24-.31-1.85-.49-.11,0-.18-.18-.44-.45,1.82-.33,3.41.25,5,.6a28.68,28.68,0,0,1,10,4.15c3.57,2.4,7.36,3.92,11.79,3.36A3.6,3.6,0,0,1,197.61,203.87Z"/><path d="M69,277c.13-.69.61-.8,1-.93a6.26,6.26,0,0,0,4.19-5.42,4.73,4.73,0,0,1,4.36-4.25c2.6-.41,4.82-1.2,5.54-4.53.66,2.62.1,4.25-2.09,4.62-4.49.75-6.84,3.06-7.8,7.53C73.61,276.63,71.58,277.4,69,277Z"/><path d="M75.46,243.34a7.09,7.09,0,0,1-.79,6.42c-1.69,2.84-2.44,5.69-1.34,8.91a2.1,2.1,0,0,1-.69,2.48c-1-3.26-2.37-6.29-.48-9.63C73.61,249,75.13,246.39,75.46,243.34Z"/><path d="M223.29,149c-2-2-2.1-4.35-.64-7.07,2.06-3.84,6.2-6.17,10.13-5.33C226.36,138.35,221.58,141.14,223.29,149Z"/><path d="M164.41,163.63c-4.93,3.28-7.64,8.41-11,13C154.72,170.31,159,166.5,164.41,163.63Z"/><path d="M189.55,118.76c-5.51,1-10.71,2.81-15,6.62C177.28,120.92,185.06,117.45,189.55,118.76Z"/><path d="M259.24,183.67c4.76-3.26,6.38-7.58,6.38-12.75a3.22,3.22,0,0,1,.93,3.64,60,60,0,0,1-2.36,6.15A4.85,4.85,0,0,1,259.24,183.67Z"/><path d="M218.05,138c-1.94-4.12-3.34-8.52-6.24-12.13A17,17,0,0,1,218.05,138Z"/><path d="M208.51,171.33c3.21-2,6.33-3.68,8.43-6.6C215.5,168.32,211.51,171.54,208.51,171.33Z"/><path d="M108.71,243.59c2.18-2.34,4.08-4.92,6.21-7.66C114.73,238.37,112.08,241.65,108.71,243.59Z"/><path d="M153,261.1c-3-.22-4.17-3.22-3.06-7.21C150.27,256.6,150.08,259.52,153,261.1Z"/><path d="M70.26,302.52c-2.05-.17-2.59-1.59-2.69-3.36C68.41,300.32,69.33,301.4,70.26,302.52Z"/><path d="M259.3,136.09l-15-11.77.37-.48c5.14,3.74,10.74,6.87,15,11.81Z"/><path d="M203.69,111.53a26.79,26.79,0,0,1-11.18-8.61C195.86,106.28,199.93,108.67,203.69,111.53Z"/><path d="M209.66,81.93l-5.72-3.43A11.43,11.43,0,0,1,209.66,81.93Z"/><path d="M109.45,196c-1.09-3.57-.46-8.45,1.53-12.29A62.7,62.7,0,0,0,109.45,196Z"/><path d="M143.6,201.11c-.18,1.47-.52,3-2.39,3.19-1.5.13-1.88-1.11-1.82-2.32.08-1.53.44-3.1,2.35-3.25C143.25,198.61,143.55,199.79,143.6,201.11Zm-3.51.74c.22.53,0,1.67,1,1.67,1.44,0,1.76-1.28,1.88-2.42.07-.74-.13-1.82-1.08-1.73C140.74,199.49,140.19,200.51,140.09,201.85Z"/><path d="M133.65,200.3c-.13,1.09-.42,2.3-1.62,2.1-1.65-.27-1.88-1.93-2.22-3.27-.23-.91.4-1.35,1.21-1.3A2.63,2.63,0,0,1,133.65,200.3Zm-2.46-1.76c-.31.11-.83.18-.67.75.27.92.44,2.05,1.5,2.35.68.19.85-.6.85-1.15A1.85,1.85,0,0,0,131.19,198.54Z"/><path d="M133,176.31c-.14,1.18-.32,2.42-1.56,2.25-1.69-.22-1.89-1.87-2.21-3.22a1,1,0,0,1,1.13-1.36A2.65,2.65,0,0,1,133,176.31Zm-1.56,1.53a1.14,1.14,0,0,0,.84-1.31,1.83,1.83,0,0,0-1.72-1.8.56.56,0,0,0-.64.8C130.23,176.4,130.31,177.48,131.42,177.84Z"/><path d="M139.28,192.56c0,.89-.5,1.31-1.33,1.21s-1.76-.25-1.84-1.33.63-1.3,1.49-1.35C138.65,191,139.12,191.62,139.28,192.56Z"/><path d="M118.36,183.05c-.75-.2-1.84-.25-1.8-1.48,0-1,.83-1.19,1.68-1.18a1.36,1.36,0,0,1,1.49,1.4C119.79,182.67,119.37,183.1,118.36,183.05Z"/><path d="M112,195a1.64,1.64,0,0,1-.42-2.41,1.34,1.34,0,0,1,1.69-.49,2,2,0,0,1,1.22,2.24,1.34,1.34,0,0,1-.87,1.32,1.18,1.18,0,0,1-1.69-.74,1.4,1.4,0,0,1,.41.05c.65.35,1.26.47,1.42-.47.13-.71.05-1.54-.85-1.66s-.92.7-1,1.32A4,4,0,0,0,112,195Z"/><path d="M123.37,191.72a1,1,0,0,1,1.16,1.14c0,.81-.22,1.69-1.08,1.79s-1.08-.69-1.17-1.44A1.17,1.17,0,0,1,123.37,191.72Z"/><path d="M131.83,212.5c-.19.82-.42,1.76-1.38,1.58-1.5-.29-1.35-1.8-1.64-2.89-.15-.55.22-1.32.84-1.23C131,210.16,131.42,211.38,131.83,212.5Zm-.65-.1c-.19-.68-.38-1.51-1.29-1.63-.5-.07-.66.55-.55.94.21.69.23,1.65,1.22,1.73C131,213.47,131.17,212.93,131.18,212.4Z"/><path d="M137.17,208.69c-.2.7-.31,1.62-1.33,1.53s-.94-1-1-1.64a1.08,1.08,0,0,1,1.08-1.29C136.84,207.25,137.13,207.84,137.17,208.69Z"/><path d="M120.57,210a1.25,1.25,0,0,1,1.21,1.42c0,.8-.34,1.43-1.15,1.51-1,.09-1.09-.72-1.16-1.43A1.25,1.25,0,0,1,120.57,210Z"/><path d="M130.84,184.1c-1,0-1.91.09-1.8,1.4s1,1.46,2.22,1.11c-.84,1-1.6,1.07-2.33.36a2,2,0,0,1-.48-2.48C129,183.4,129.93,183.75,130.84,184.1Z"/><path d="M121.3,202c-1.11-.21-1.61.44-1.51,1.38s.83,1.54,1.94,1.13c-.46,1.15-1.28,1-2,.4a2,2,0,0,1-.42-2.64C119.77,201.49,120.5,201,121.3,202Z"/><path d="M300.87,183.57c8.19-7.14,13.52-15.45,11.41-27a6.86,6.86,0,0,1,1.14,4.31C313.33,170.69,308.47,177.89,300.87,183.57Z"/><path d="M202.88,151.89c0-2.09,1.13-3.74,2.46-3.64s1.75,1,1.79,2.17c.05,1.78-1,3.47-2.38,3.48C203.23,153.92,203,152.8,202.88,151.89Zm3.65-1.09c0-.81-.12-1.82-1.05-1.81-1.21,0-1.79,1-1.83,2.2,0,.83-.05,2,1.08,1.92S206.27,151.85,206.53,150.8Z"/><path d="M179.58,148.77a1.06,1.06,0,0,1-1.41,1.08c-.82-.17-1.78-.35-1.78-1.45s.85-1.2,1.64-1.23C179.06,147.14,179.56,147.72,179.58,148.77Z"/><path d="M193.35,148.7c-.14-.92.31-1.35,1.19-1.31a2.47,2.47,0,0,1,2.58,2.54,1.93,1.93,0,0,1-1.38,2.15C194.82,152.31,193.42,150.25,193.35,148.7Zm1.56-.63c-.53,0-1,.1-.87.65.2,1,.38,2.08,1.43,2.45.68.24.93-.52.95-1.09A2,2,0,0,0,194.91,148.07Z"/><path d="M202.82,142.13c-.07,1-.68,1.24-1.46,1.17s-1.73-.35-1.74-1.41.8-1.21,1.61-1.22A1.47,1.47,0,0,1,202.82,142.13Z"/><path d="M212.27,144.26a1.15,1.15,0,0,1,1.25,1.2c0,.86-.31,1.66-1.19,1.74s-1.14-.8-1.24-1.48A1.27,1.27,0,0,1,212.27,144.26Z"/><path d="M194.63,134.31c1.31.72.72,1.5,0,2.16a1.49,1.49,0,0,1-2.39-.15,1.85,1.85,0,0,1,.2-2.82c1.08-.83,1.83-.29,2.24.87-.51-.46-1-1.16-1.74-.46a1.33,1.33,0,0,0-.23,1.73c.29.53.75.88,1.37.59C195,135.83,195,135.12,194.63,134.31Z"/><path d="M189.86,159.91c-.18.7-.33,1.49-1.21,1.47s-1.23-.72-1.23-1.59.42-1.12,1.17-1.15C189.5,158.6,189.81,159.13,189.86,159.91Z"/><path d="M201.12,126.69c1.23-.08,1.66.32,1.68,1.06s-.28,1.59-1.21,1.66-1.18-.66-1.25-1.39S200.74,126.74,201.12,126.69Z"/><path d="M185.36,152.42c.41.74.95,1.5-.14,2.13a1.47,1.47,0,0,1-2.09-.23,2,2,0,0,1-.11-2.71c.75-.78,1.66-.52,2.32.37-.66-.32-1.34-.59-1.87.16a1.23,1.23,0,0,0,.13,1.55c.3.41.74.74,1.25.43S186,153.21,185.36,152.42Z"/><path d="M207.3,133c-.93,0-1.92,0-1.84,1.29.09,1.54,1.21,1.38,2.27,1.24-.69.81-1.51,1.14-2.36.33a1.92,1.92,0,0,1-.4-2.66A1.4,1.4,0,0,1,207.3,133Z"/><path d="M199.18,159.76a1.08,1.08,0,0,1,1.8-.26,1.18,1.18,0,0,1,.31,1.35c-.27.77-.7,1.36-2,.92.74-.45,1.67-.43,1.51-1.42C200.59,159.2,199.65,160.16,199.18,159.76Z"/><path d="M178.65,166.64a36.32,36.32,0,0,1,15.29,3.28c6.64,3,10.17,8.24,10.41,15.56a64,64,0,0,1-1,10.61c-.15,1.13-.69,1.71-1.9,1.11-.64-.31-1.33-.52-2-.84-3-1.51-5.81-3.26-8.92-4.54-2.47-1-2.56-2.24-.51-4,1.18-1,.84-1.73-.31-2.22-4.19-1.77-8.31-3.75-12.93-4.16a11.45,11.45,0,0,0-2.55.05c-1.21.15-1.58.85-1,2a16.73,16.73,0,0,0,.89,1.46c1.39,2.13,1.09,2.93-1.43,3a14.21,14.21,0,0,1-11.06-5.12,2.48,2.48,0,0,1-.41-2c.41-7.1,5-12.15,12.28-13.55A22.26,22.26,0,0,1,178.65,166.64Zm-6,19.44c.06-.64-.53-.76-.87-1.07-2-1.79-1.82-3.24.6-4.36a9.83,9.83,0,0,1,5.85-.46c4.47.73,8.5,2.7,12.58,4.51,2.37,1.06,2.5,2.66.45,4.28-1,.82-1,1.26.2,1.75a80.22,80.22,0,0,1,8.9,4.56c1,.57,1.49.53,1.63-.77.2-1.83.65-3.64.83-5.47.87-9-2.65-15.43-10.35-18.51a34.26,34.26,0,0,0-18-2.26c-6.82,1-11.45,5.61-12.28,12a2.38,2.38,0,0,0,.18,1.84C164,184.47,169.64,186.67,172.66,186.08Z"/><path d="M242.05,179.61c-2.47-.08-4.4-.33-5.27-2.29s-.1-3.84,1.38-5.22c4.14-3.86,7.84-5.36,12.25-3.24,2.58,1.23,3.08,3.17,1.17,5.29A18.43,18.43,0,0,1,242.05,179.61ZM246.4,172c-2.86.48-5.52,1.17-7.54,3.28-.53.55-1.14,1.16-.73,2a2.21,2.21,0,0,0,1.89,1.17,7,7,0,0,0,3.13-.38,33.15,33.15,0,0,0,5.35-2.54c.64-.33,1.63-.54,1.48-1.54-.12-.83-.87-1.27-1.62-1.54S247,172.11,246.4,172Zm5,.73c.4-2-.87-2.75-2.35-3.21a9.29,9.29,0,0,0-10.36,4.2C242.88,171.5,247,169.86,251.39,172.69Z"/><path d="M229.4,174.76c-.09,3.74,2.9,4.63,5.69,5.94C231.27,180.56,228.77,177.89,229.4,174.76Z"/><path d="M92,234.21c.51-3,.12-6.37,1.79-9.45a7,7,0,0,1,4-3.53c1.8-.57,3.68-.68,5.21.73s1.26,3.19.68,4.93a18.94,18.94,0,0,1-7.75,9.82c-.86.59-1.88,1.12-3,.4C92,236.49,91.81,235.55,92,234.21Zm10.46-7.75c0-1.11-.71-1.14-1.45-1.14a5.61,5.61,0,0,0-4.88,3.85c-.53,1.55-.46,3.25-1.31,4.71-.27.47-.63,1.1,0,1.51s1.1-.08,1.55-.42a20.71,20.71,0,0,0,5.41-6.78A13.35,13.35,0,0,0,102.42,226.46ZM93.54,234a5.84,5.84,0,0,0,1.31-3.63c.42-3.6,2.75-5.21,5.94-6.08.5-.13,1.5.35,1.42-.7-.06-.77-.85-1.08-1.55-1.28-1.78-.54-4.2.73-5.45,2.89A15.18,15.18,0,0,0,93.54,234Z"/><path d="M169,178.83a3.51,3.51,0,0,1-2.45-2.38c-.19-.63-.39-1.27.3-1.7a1.51,1.51,0,0,1,1.78.17c1.38,1.08,1.74,2.67,2.07,4.26.06.28,0,.64-.31.66-.75,0-.94-.76-1.47-1.07,1.65-.82.13-1.68,0-2.46-.14-.63-.65-1.36-1.54-1-.6.26-.38.84-.2,1.29A4.79,4.79,0,0,0,169,178.83Z"/><path d="M185,178.72v-2.95l.44,1.78a4.26,4.26,0,0,0,1.88-2.1c.36-.64,1-1.38.23-2.11s-1.47-.06-2.3,1c.44-1.77,1.21-2,2.23-1.66s1.05,1.26.75,2.13A6.73,6.73,0,0,1,185,178.72Z"/><path d="M176.39,177.9c-.17-1.12-1-1.62.22-2.25.59-.3.8-1.44,1.08-2.23a1.46,1.46,0,0,0-.38-1.74c-.67-.55-1,.23-1.66.68.27-1.23.86-1.55,1.64-1.31a1.6,1.6,0,0,1,1.08,1.85C178.25,174.58,177.4,176,176.39,177.9Z"/><path d="M192.78,181.17c1-.26,2-.47,3-.8.58-.2,1.32-.54.93-1.37s-1.13-.73-1.81-.33c-.41.24-.77.56-1.51,1.1a3.08,3.08,0,0,1,2-1.87,1.6,1.6,0,0,1,2,.83c.47.93,0,1.5-.81,1.89C195.39,181.22,194.16,181.75,192.78,181.17Z"/></svg>